<svg width="26" height="25" viewBox="0 0 26 25" fill="none" xmlns="http://www.w3.org/2000/svg">
<ellipse cx="12.894" cy="12.428" rx="12.894" ry="12.428" fill="#2D545E"/>
<path d="M9.15332 13.8462C9.15332 15.5382 10.912 17.25 12.6767 17.25" stroke="white" stroke-linecap="round"/>
<path d="M17.5854 18.2148C16.3555 19.4775 14.8048 20.1131 12.8942 20.1131C10.9836 20.1131 9.43297 19.4775 8.20306 18.2148C6.97151 16.9504 6.34863 15.3595 6.34863 13.4036C6.34863 12.1257 6.88552 10.6238 8.04123 8.88351C9.13786 7.23214 10.7511 5.41801 12.8942 3.44126C15.0373 5.41801 16.6506 7.23214 17.7472 8.88351C18.9029 10.6238 19.4398 12.1257 19.4398 13.4036C19.4398 15.3595 18.8169 16.9504 17.5854 18.2148Z" stroke="white"/>
</svg>
