<svg width="15" height="14" viewBox="0 0 15 14" fill="none" xmlns="http://www.w3.org/2000/svg">
<circle cx="7.57855" cy="7.08881" r="6.69183" fill="#E4AC70"/>
<g clip-path="url(#clip0_835_1256)">
<path d="M11.8924 5.18888L7.31619 9.76513C7.29962 9.83516 7.26528 9.90184 7.21062 9.9565L7.02166 10.1455C6.86517 10.3021 6.61126 10.3021 6.45477 10.1455L6.41241 10.1032C6.41228 10.103 6.41201 10.1028 6.41174 10.1026L6.22278 9.9136C6.22251 9.91333 6.22238 9.91307 6.22211 9.91293L3.43084 7.12167C3.27435 6.96504 3.27435 6.71127 3.43084 6.55465L3.61981 6.36568C3.77643 6.20906 4.0302 6.20906 4.18683 6.36568L6.69532 8.87418L11.1365 4.4329C11.2931 4.27627 11.5469 4.27627 11.7035 4.4329L11.8924 4.62186C12.0491 4.77848 12.0491 5.03226 11.8924 5.18888Z" fill="white"/>
</g>
<defs>
<clipPath id="clip0_835_1256">
<rect width="8.69551" height="8.69551" fill="white" transform="translate(3.31641 2.94141)"/>
</clipPath>
</defs>
</svg>
