<svg width="122" height="30" viewBox="0 0 122 30" fill="none" xmlns="http://www.w3.org/2000/svg">
<path d="M23.3532 15.8846H17.4885C17.315 15.8846 17.1744 16.025 17.1744 16.1982V22.0529C17.1744 22.2261 17.315 22.3665 17.4885 22.3665H23.3532C23.5267 22.3665 23.6673 22.2261 23.6673 22.0529V16.1982C23.6673 16.025 23.5267 15.8846 23.3532 15.8846Z" fill="#143A44"/>
<path d="M16.8604 22.889H10.9958C10.8223 22.889 10.6817 23.0295 10.6817 23.2027V29.0574C10.6817 29.2306 10.8223 29.3709 10.9958 29.3709H16.8604C17.0339 29.3709 17.1746 29.2306 17.1746 29.0574V23.2027C17.1746 23.0295 17.0339 22.889 16.8604 22.889Z" fill="#143A44"/>
<path d="M0.314087 2.14832H27.542C27.7155 2.14832 27.8561 2.26234 27.8561 2.40326V7.16225C27.8561 7.30317 27.7153 7.4172 27.542 7.4172H0.314087C0.140518 7.4172 0 7.30317 0 7.16225V2.40326C0 2.26234 0.1407 2.14832 0.314087 2.14832Z" fill="#143A44"/>
<path d="M16.8604 8.88007H10.9958C10.8223 8.88007 10.6817 9.02044 10.6817 9.19362V15.0483C10.6817 15.2215 10.8223 15.3619 10.9958 15.3619H16.8604C17.0339 15.3619 17.1746 15.2215 17.1746 15.0483V9.19362C17.1746 9.02044 17.0339 8.88007 16.8604 8.88007Z" fill="#143A44"/>
<path d="M38.356 14.2065C38.356 14.3039 38.277 14.3827 38.1794 14.3827H36.6025C33.1736 14.3827 31.0304 16.2112 31.0304 19.9454V29.1052C31.0304 29.2026 30.9514 29.2815 30.8538 29.2815H26.453C26.3553 29.2815 26.2764 29.2026 26.2764 29.1052V10.2801C26.2764 10.1827 26.3553 10.1038 26.453 10.1038H30.5973C30.6881 10.1038 30.7643 10.1727 30.7729 10.2631L31.0302 12.9046C31.8485 10.9985 33.6799 9.71472 36.2516 9.71472C36.875 9.71472 37.4983 9.78372 38.219 9.9538C38.2986 9.97249 38.3558 10.0446 38.3558 10.1263V14.2065H38.356Z" fill="#143A44"/>
<path d="M39.1349 23.7978C39.1349 20.2579 41.7067 18.0406 46.2658 17.6905L52.0324 17.2624V16.8346C52.0324 14.2284 50.4739 13.1779 48.0579 13.1779C45.3331 13.1779 43.7843 14.279 43.6978 16.1958C43.6935 16.2912 43.6178 16.3676 43.5223 16.3676H39.8212C39.7225 16.3676 39.6414 16.2865 39.6437 16.188C39.741 12.1271 43.1461 9.4823 48.2917 9.4823C53.4741 9.4823 56.6698 12.2831 56.6698 17.6124V29.1059C56.6698 29.2034 56.5903 29.2822 56.4926 29.2822H52.656C52.5675 29.2822 52.4917 29.2159 52.4807 29.1275L52.1493 26.4424C51.3312 28.4261 48.7208 29.7878 45.72 29.7878C41.6285 29.7878 39.1348 27.4148 39.1348 23.7973L39.1349 23.7978ZM52.0717 21.5028V20.4915L48.0579 20.8026C45.0967 21.0748 43.9667 22.0473 43.9667 23.6034C43.9667 25.3539 45.1357 26.2097 47.2791 26.2097C50.2018 26.2097 52.0717 24.4593 52.0717 21.5028Z" fill="#143A44"/>
<path d="M69.0215 9.48266C74.2058 9.48266 77.763 12.3166 78.3492 16.8301C78.3629 16.9354 78.2789 17.0292 78.173 17.0292H73.7538C73.6744 17.0292 73.6059 16.9749 73.5849 16.8983C73.0088 14.8058 71.4301 13.7228 69.216 13.7228C66.1765 13.7228 64.1505 16.0177 64.1505 19.6354C64.1505 23.2531 66.0204 25.5094 69.0599 25.5094C71.3872 25.5094 73.0417 24.3913 73.5858 22.3736C73.6059 22.2965 73.6753 22.2416 73.7548 22.2416H78.2077C78.3154 22.2416 78.3994 22.3381 78.383 22.4445C77.7137 26.8077 74.0104 29.7882 69.0599 29.7882C63.2155 29.7882 59.3962 25.7426 59.3962 19.6352C59.3962 13.6835 63.3324 9.4823 69.0215 9.4823V9.48266Z" fill="#143A44"/>
<path d="M80.0081 19.674C80.0081 13.6445 83.9442 9.4823 89.5941 9.4823C95.3609 9.4823 99.024 13.3334 99.024 19.3239V20.5874C99.024 20.6845 98.9446 20.7632 98.8478 20.7636L84.5285 20.802C84.8791 24.1863 86.6714 25.8978 89.8278 25.8978C92.3798 25.8978 94.0753 24.9315 94.6597 23.1806C94.6843 23.1083 94.75 23.0583 94.8267 23.0583H98.8834C98.9957 23.0583 99.0815 23.1624 99.0578 23.2718C98.163 27.3449 94.6907 29.7879 89.7493 29.7879C84.0218 29.7879 80.0081 25.6257 80.0081 19.674ZM84.6454 17.768H94.1283C94.2278 17.768 94.3091 17.6861 94.3063 17.5874C94.2241 15.0434 92.4127 13.3722 89.6334 13.3722C86.8276 13.3722 85.1129 14.8893 84.6454 17.768Z" fill="#143A44"/>
<path d="M100.894 19.7506C100.894 13.7601 104.401 9.48117 110.207 9.48117C112.896 9.48117 115.273 10.6091 116.481 12.5154V0.516005C116.481 0.418566 116.559 0.339722 116.657 0.339722H121.018C121.116 0.339722 121.196 0.418566 121.196 0.516005V29.105C121.196 29.2024 121.116 29.2813 121.018 29.2813H116.99C116.9 29.2813 116.824 29.2131 116.815 29.1231L116.519 26.286C115.35 28.5031 112.857 29.7868 109.934 29.7868C104.362 29.7868 100.894 25.7023 100.894 19.7506ZM116.441 19.5951C116.441 16.1331 114.298 13.7213 110.986 13.7213C107.673 13.7213 105.647 16.1718 105.647 19.5951C105.647 23.0184 107.674 25.4301 110.986 25.4301C114.298 25.4301 116.441 23.0571 116.441 19.5951Z" fill="#143A44"/>
</svg>
