<svg width="24" height="23" viewBox="0 0 24 23" fill="none" xmlns="http://www.w3.org/2000/svg">
<path d="M3.87968 0.775877C4.69138 0.918982 5.63472 1.37334 6.82879 2.26298C8.88607 3.79301 10.5907 5.90261 12 8.079C13.4093 5.90261 15.114 3.7942 17.1713 2.26298C18.3653 1.37334 19.3087 0.918982 20.1204 0.774685C20.9985 0.619654 21.5972 0.8522 21.9693 1.01319C23.1244 1.51525 23.4484 2.90456 23.4484 4.08518C23.4484 4.32488 23.35 5.63787 23.2366 6.89958C23.1771 7.5507 23.1107 8.22091 23.0466 8.78021C22.9859 9.29062 22.9149 9.82965 22.8291 10.1314C22.4775 11.3911 21.6789 12.4642 20.5955 13.133C21.6682 13.9761 22.0574 15.3463 21.6579 16.6915C20.9744 18.986 18.5245 21.9351 16.1226 22.1987C14.0928 22.4205 12.7625 20.6186 12 18.9073C11.2376 20.6186 9.90726 22.4205 7.87861 22.1987C5.47559 21.9363 3.02449 18.986 2.34216 16.6915C1.94147 15.3463 2.33072 13.9761 3.40458 13.133C2.32155 12.464 1.52341 11.3909 1.17214 10.1314C1.08513 9.82965 1.01415 9.29062 0.954619 8.78021C0.883015 8.15423 0.819281 7.5273 0.763431 6.89958C0.648947 5.63787 0.551636 4.32488 0.551636 4.08518C0.551636 2.90456 0.875625 1.51525 2.03077 1.01319C2.40399 0.8522 3.00045 0.619654 3.87968 0.774685V0.775877ZM2.89856 4.92115C2.97183 5.89665 3.10463 7.43503 3.22827 8.48923C3.26491 8.80884 3.29124 9.13917 3.36794 9.45161C3.82244 11.0496 5.57634 11.9345 7.58782 11.7019C7.88565 11.6681 8.18432 11.7573 8.41976 11.9503C8.65519 12.1433 8.80863 12.4247 8.84713 12.7342C8.88564 13.0437 8.80615 13.3566 8.62572 13.6057C8.44529 13.8548 8.1783 14.0203 7.88204 14.0667C7.01655 14.2003 4.0869 14.4925 4.52995 15.9832C4.93866 17.3558 6.64562 19.6645 8.11788 19.8255C9.18029 19.9412 9.83514 18.1631 10.1397 17.3868C10.4545 16.583 10.6983 15.7411 10.9044 15.0232C10.9751 14.7774 11.1199 14.5618 11.3175 14.4086C11.5151 14.2554 11.7548 14.1726 12.0012 14.1726C12.2475 14.1726 12.4873 14.2554 12.6848 14.4086C12.8824 14.5618 13.0273 14.7774 13.0979 15.0232C13.304 15.7411 13.5479 16.583 13.8627 17.3868C14.1672 18.1631 14.8221 19.9412 15.8845 19.8255C17.3567 19.6645 19.0637 17.357 19.4724 15.9832C19.9155 14.4925 16.9858 14.2003 16.1203 14.0667C15.8241 14.0203 15.5571 13.8548 15.3766 13.6057C15.1962 13.3566 15.1167 13.0437 15.1552 12.7342C15.1937 12.4247 15.3472 12.1433 15.5826 11.9503C15.818 11.7573 16.1167 11.6681 16.4145 11.7019C18.426 11.9345 20.1799 11.0496 20.6344 9.45161C20.7134 9.1344 20.7363 8.81241 20.7741 8.48923C20.8977 7.43503 21.0305 5.89665 21.1038 4.92115C21.1462 4.36304 21.3866 2.96896 20.5062 3.12518C20.1788 3.18362 19.564 3.41259 18.5039 4.20205C16.2794 5.85849 14.2622 8.39145 13.0212 10.928C12.9254 11.1239 12.7794 11.2885 12.5993 11.4034C12.4193 11.5183 12.2123 11.5791 12.0012 11.5791C11.79 11.5791 11.583 11.5183 11.403 11.4034C11.223 11.2885 11.077 11.1239 10.9811 10.928C9.74012 8.39145 7.72291 5.85849 5.49849 4.20205C4.43837 3.41259 3.82359 3.18362 3.49616 3.12518C2.59861 2.96538 2.8562 4.35827 2.89856 4.92115Z" fill="#EBE6D5"/>
</svg>
