<svg width="1566" height="782" viewBox="0 0 1566 782" fill="none" xmlns="http://www.w3.org/2000/svg">
<g clip-path="url(#clip0_1081_3317)">
<path fill-rule="evenodd" clip-rule="evenodd" d="M1156.29 64.1858V56.4087H1164.07V64.1858L1156.29 64.1858ZM883.25 80.3433C883.25 70.4022 891.309 62.3433 901.25 62.3433H1151.16V58.3433H901.25C889.1 58.3433 879.25 68.193 879.25 80.3433V151.54H883.25V80.3433ZM883.25 168.191H879.25V169.001C879.25 178.942 871.191 187.001 861.25 187.001H858.483V186.977H849.748C837.598 186.977 827.748 196.827 827.748 208.977V211.77H831.748V208.977C831.748 199.036 839.807 190.977 849.748 190.977H857.718V191.001H861.25C873.4 191.001 883.25 181.152 883.25 169.001V168.191ZM827.748 248.002V228.849H831.748V248.002C831.748 260.152 821.898 270.002 809.748 270.002H751.748V266.002H809.748C819.689 266.002 827.748 257.943 827.748 248.002ZM1267.75 58.3433H1169.22V62.3433H1267.75C1277.69 62.3433 1285.75 70.4021 1285.75 80.3431L1285.75 245.498C1285.75 257.648 1295.6 267.498 1307.75 267.498H1356.75V263.498H1307.75C1297.81 263.498 1289.75 255.439 1289.75 245.498L1289.75 80.3431C1289.75 68.1929 1279.9 58.3433 1267.75 58.3433ZM1514.39 267.498H1417.88V263.498H1514.39C1526.54 263.498 1536.39 273.348 1536.39 285.498V411.144C1536.39 423.294 1526.54 433.144 1514.39 433.144H1490.92V429.144H1514.39C1524.33 429.144 1532.39 421.085 1532.39 411.144V285.498C1532.39 275.557 1524.33 267.498 1514.39 267.498ZM1429.79 433.144V429.144H1412.98C1400.83 429.144 1390.98 438.993 1390.98 451.144V470.226H1394.98V451.144C1394.98 441.203 1403.04 433.144 1412.98 433.144H1429.79ZM1394.98 493.149H1390.98V524.276C1390.98 534.218 1382.92 542.276 1372.98 542.276H1274.06V546.276H1372.98C1385.13 546.276 1394.98 536.427 1394.98 524.276V493.149ZM1212.93 546.276V542.276H1180.5C1168.45 542.276 1158.64 551.971 1158.5 564.02L1156.75 713.635L1160.75 713.682L1162.5 564.066C1162.61 554.208 1170.64 546.276 1180.5 546.276H1212.93ZM1397.08 477.488V485.129H1389.44V477.488H1397.08ZM1255.84 548.55H1263.48V540.909H1255.84V548.55ZM1230.15 548.55H1222.51V540.909H1230.15V548.55ZM1472.79 435.236H1480.43V427.595H1472.79V435.236ZM1447.1 435.236H1439.46V427.595H1447.1V435.236ZM1401.03 269.316H1408.67V261.675H1401.03V269.316ZM1375.34 269.316H1367.7V261.675H1375.34V269.316ZM470.614 158.434V150.657H478.391V158.434H470.614ZM595.854 174.477C595.854 162.327 586.004 152.477 573.854 152.477H483.803V156.477H573.854C583.795 156.477 591.854 164.536 591.854 174.477V268.002V330.322H595.854V270.002H694.564V266.002H595.854V174.477ZM596.067 348.546C597.402 357.169 604.857 363.77 613.854 363.77H633.083V363.658H709.05C721.201 363.658 731.05 373.508 731.05 385.658V484.658C731.05 494.599 739.109 502.658 749.05 502.658H915.252V506.658H749.05C736.9 506.658 727.05 496.808 727.05 484.658V385.658C727.05 375.717 718.991 367.658 709.05 367.658H634.957V367.77H613.854C602.644 367.77 593.392 359.386 592.027 348.546H596.067ZM465.423 152.477H386.205C374.055 152.477 364.205 162.327 364.205 174.477V216.3H368.205V174.477C368.205 164.536 376.264 156.477 386.205 156.477H465.423V152.477ZM368.205 231.203H364.205V276.477C364.205 286.418 356.147 294.477 346.205 294.477H336.307V298.477H346.205C358.356 298.477 368.205 288.628 368.205 276.477V231.203ZM294.912 298.482C288.163 298.662 282.748 304.19 282.748 310.982V337.881C282.748 350.031 272.898 359.881 260.748 359.881H40C29.9472 359.881 21.8429 368.115 22.0023 378.166L23.2517 456.946L23.2523 456.984L23.2515 457.023L22.1422 506.073C21.914 516.171 30.0372 524.48 40.1377 524.48H144.999V528.48H40.1377C27.7927 528.48 17.8642 518.324 18.1433 505.983L19.2516 456.97L18.0028 378.229C17.808 365.944 27.7133 355.881 40 355.881H260.748C270.689 355.881 278.748 347.822 278.748 337.881V310.982C278.748 301.98 285.954 294.662 294.912 294.481V298.482ZM196.194 524.48V528.48H217.674C227.615 528.48 235.674 536.539 235.674 546.48V568.149H239.674V546.48C239.674 534.33 229.824 524.48 217.674 524.48H196.194ZM239.674 585.574H235.674V632.63C235.674 644.78 245.523 654.63 257.674 654.63H365.758V650.63H257.674C247.732 650.63 239.674 642.571 239.674 632.63V585.574ZM418.656 650.63V654.63H447.07C457.011 654.63 465.07 662.689 465.07 672.63V776.946H469.07V672.63C469.07 660.48 459.22 650.63 447.07 650.63H418.656ZM234.006 580.608V572.831H241.783V580.608H234.006ZM590.087 335.376V343.153H597.864V335.376H590.087ZM370.986 656.083H378.763V648.305H370.986V656.083ZM395.727 656.083H387.95V648.305H395.727V656.083ZM404.914 656.083H412.691V648.305H404.914V656.083ZM160.029 530.435H152.251V522.658H160.029V530.435ZM168.25 530.435H176.027V522.658H168.25V530.435ZM1154.25 731.034L1154.34 721.658L1163.71 721.744L1163.63 731.12L1154.25 731.034ZM184.248 530.435H192.025V522.658H184.248V530.435ZM1508.25 436.963V433.158H1504.25V436.963C1504.25 446.184 1496.78 453.658 1487.56 453.658C1476.13 453.658 1466.86 462.923 1466.86 474.352V781.658C1466.86 791.599 1458.8 799.658 1448.86 799.658H1404.25H1296.25H1164.31C1160.95 799.658 1158.35 796.727 1158.74 793.392L1156.75 793.158H1158.75V783.658H1154.75V793.047C1154.16 798.71 1158.6 803.658 1164.31 803.658H1296.25H1404.25H1448.86C1461.01 803.658 1470.86 793.808 1470.86 781.658V474.352C1470.86 465.132 1478.34 457.658 1487.56 457.658C1498.99 457.658 1508.25 448.393 1508.25 436.963ZM298.528 300.277H306.305V292.5L298.528 292.5V300.277ZM318.874 300.277H311.096V292.5L318.874 292.5V300.277ZM324.551 300.277H332.328V292.5L324.551 292.5V300.277ZM370.533 227.553H362.756V219.776L370.533 219.776V227.553Z" fill="url(#paint0_radial_1081_3317)"/>
<path fill-rule="evenodd" clip-rule="evenodd" d="M1156.29 64.1858V56.4087H1164.07V64.1858L1156.29 64.1858ZM883.25 80.3433C883.25 70.4022 891.309 62.3433 901.25 62.3433H1151.16V58.3433H901.25C889.1 58.3433 879.25 68.193 879.25 80.3433V151.54H883.25V80.3433ZM883.25 168.191H879.25V169.001C879.25 178.942 871.191 187.001 861.25 187.001H858.483V186.977H849.748C837.598 186.977 827.748 196.827 827.748 208.977V211.77H831.748V208.977C831.748 199.036 839.807 190.977 849.748 190.977H857.718V191.001H861.25C873.4 191.001 883.25 181.152 883.25 169.001V168.191ZM827.748 248.002V228.849H831.748V248.002C831.748 260.152 821.898 270.002 809.748 270.002H751.748V266.002H809.748C819.689 266.002 827.748 257.943 827.748 248.002ZM1267.75 58.3433H1169.22V62.3433H1267.75C1277.69 62.3433 1285.75 70.4021 1285.75 80.3431L1285.75 245.498C1285.75 257.648 1295.6 267.498 1307.75 267.498H1356.75V263.498H1307.75C1297.81 263.498 1289.75 255.439 1289.75 245.498L1289.75 80.3431C1289.75 68.1929 1279.9 58.3433 1267.75 58.3433ZM1514.39 267.498H1417.88V263.498H1514.39C1526.54 263.498 1536.39 273.348 1536.39 285.498V411.144C1536.39 423.294 1526.54 433.144 1514.39 433.144H1490.92V429.144H1514.39C1524.33 429.144 1532.39 421.085 1532.39 411.144V285.498C1532.39 275.557 1524.33 267.498 1514.39 267.498ZM1429.79 433.144V429.144H1412.98C1400.83 429.144 1390.98 438.993 1390.98 451.144V470.226H1394.98V451.144C1394.98 441.203 1403.04 433.144 1412.98 433.144H1429.79ZM1394.98 493.149H1390.98V524.276C1390.98 534.218 1382.92 542.276 1372.98 542.276H1274.06V546.276H1372.98C1385.13 546.276 1394.98 536.427 1394.98 524.276V493.149ZM1212.93 546.276V542.276H1180.5C1168.45 542.276 1158.64 551.971 1158.5 564.02L1156.75 713.635L1160.75 713.682L1162.5 564.066C1162.61 554.208 1170.64 546.276 1180.5 546.276H1212.93ZM1397.08 477.488V485.129H1389.44V477.488H1397.08ZM1255.84 548.55H1263.48V540.909H1255.84V548.55ZM1230.15 548.55H1222.51V540.909H1230.15V548.55ZM1472.79 435.236H1480.43V427.595H1472.79V435.236ZM1447.1 435.236H1439.46V427.595H1447.1V435.236ZM1401.03 269.316H1408.67V261.675H1401.03V269.316ZM1375.34 269.316H1367.7V261.675H1375.34V269.316ZM470.614 158.434V150.657H478.391V158.434H470.614ZM595.854 174.477C595.854 162.327 586.004 152.477 573.854 152.477H483.803V156.477H573.854C583.795 156.477 591.854 164.536 591.854 174.477V268.002V330.322H595.854V270.002H694.564V266.002H595.854V174.477ZM596.067 348.546C597.402 357.169 604.857 363.77 613.854 363.77H633.083V363.658H709.05C721.201 363.658 731.05 373.508 731.05 385.658V484.658C731.05 494.599 739.109 502.658 749.05 502.658H915.252V506.658H749.05C736.9 506.658 727.05 496.808 727.05 484.658V385.658C727.05 375.717 718.991 367.658 709.05 367.658H634.957V367.77H613.854C602.644 367.77 593.392 359.386 592.027 348.546H596.067ZM465.423 152.477H386.205C374.055 152.477 364.205 162.327 364.205 174.477V216.3H368.205V174.477C368.205 164.536 376.264 156.477 386.205 156.477H465.423V152.477ZM368.205 231.203H364.205V276.477C364.205 286.418 356.147 294.477 346.205 294.477H336.307V298.477H346.205C358.356 298.477 368.205 288.628 368.205 276.477V231.203ZM294.912 298.482C288.163 298.662 282.748 304.19 282.748 310.982V337.881C282.748 350.031 272.898 359.881 260.748 359.881H40C29.9472 359.881 21.8429 368.115 22.0023 378.166L23.2517 456.946L23.2523 456.984L23.2515 457.023L22.1422 506.073C21.914 516.171 30.0372 524.48 40.1377 524.48H144.999V528.48H40.1377C27.7927 528.48 17.8642 518.324 18.1433 505.983L19.2516 456.97L18.0028 378.229C17.808 365.944 27.7133 355.881 40 355.881H260.748C270.689 355.881 278.748 347.822 278.748 337.881V310.982C278.748 301.98 285.954 294.662 294.912 294.481V298.482ZM196.194 524.48V528.48H217.674C227.615 528.48 235.674 536.539 235.674 546.48V568.149H239.674V546.48C239.674 534.33 229.824 524.48 217.674 524.48H196.194ZM239.674 585.574H235.674V632.63C235.674 644.78 245.523 654.63 257.674 654.63H365.758V650.63H257.674C247.732 650.63 239.674 642.571 239.674 632.63V585.574ZM418.656 650.63V654.63H447.07C457.011 654.63 465.07 662.689 465.07 672.63V776.946H469.07V672.63C469.07 660.48 459.22 650.63 447.07 650.63H418.656ZM234.006 580.608V572.831H241.783V580.608H234.006ZM590.087 335.376V343.153H597.864V335.376H590.087ZM370.986 656.083H378.763V648.305H370.986V656.083ZM395.727 656.083H387.95V648.305H395.727V656.083ZM404.914 656.083H412.691V648.305H404.914V656.083ZM160.029 530.435H152.251V522.658H160.029V530.435ZM168.25 530.435H176.027V522.658H168.25V530.435ZM1154.25 731.034L1154.34 721.658L1163.71 721.744L1163.63 731.12L1154.25 731.034ZM184.248 530.435H192.025V522.658H184.248V530.435ZM1508.25 436.963V433.158H1504.25V436.963C1504.25 446.184 1496.78 453.658 1487.56 453.658C1476.13 453.658 1466.86 462.923 1466.86 474.352V781.658C1466.86 791.599 1458.8 799.658 1448.86 799.658H1404.25H1296.25H1164.31C1160.95 799.658 1158.35 796.727 1158.74 793.392L1156.75 793.158H1158.75V783.658H1154.75V793.047C1154.16 798.71 1158.6 803.658 1164.31 803.658H1296.25H1404.25H1448.86C1461.01 803.658 1470.86 793.808 1470.86 781.658V474.352C1470.86 465.132 1478.34 457.658 1487.56 457.658C1498.99 457.658 1508.25 448.393 1508.25 436.963ZM298.528 300.277H306.305V292.5L298.528 292.5V300.277ZM318.874 300.277H311.096V292.5L318.874 292.5V300.277ZM324.551 300.277H332.328V292.5L324.551 292.5V300.277ZM370.533 227.553H362.756V219.776L370.533 219.776V227.553Z" fill="url(#paint1_linear_1081_3317)" fill-opacity="0.5"/>
<path fill-rule="evenodd" clip-rule="evenodd" d="M1156.29 64.1858V56.4087H1164.07V64.1858L1156.29 64.1858ZM883.25 80.3433C883.25 70.4022 891.309 62.3433 901.25 62.3433H1151.16V58.3433H901.25C889.1 58.3433 879.25 68.193 879.25 80.3433V151.54H883.25V80.3433ZM883.25 168.191H879.25V169.001C879.25 178.942 871.191 187.001 861.25 187.001H858.483V186.977H849.748C837.598 186.977 827.748 196.827 827.748 208.977V211.77H831.748V208.977C831.748 199.036 839.807 190.977 849.748 190.977H857.718V191.001H861.25C873.4 191.001 883.25 181.152 883.25 169.001V168.191ZM827.748 248.002V228.849H831.748V248.002C831.748 260.152 821.898 270.002 809.748 270.002H751.748V266.002H809.748C819.689 266.002 827.748 257.943 827.748 248.002ZM1267.75 58.3433H1169.22V62.3433H1267.75C1277.69 62.3433 1285.75 70.4021 1285.75 80.3431L1285.75 245.498C1285.75 257.648 1295.6 267.498 1307.75 267.498H1356.75V263.498H1307.75C1297.81 263.498 1289.75 255.439 1289.75 245.498L1289.75 80.3431C1289.75 68.1929 1279.9 58.3433 1267.75 58.3433ZM1514.39 267.498H1417.88V263.498H1514.39C1526.54 263.498 1536.39 273.348 1536.39 285.498V411.144C1536.39 423.294 1526.54 433.144 1514.39 433.144H1490.92V429.144H1514.39C1524.33 429.144 1532.39 421.085 1532.39 411.144V285.498C1532.39 275.557 1524.33 267.498 1514.39 267.498ZM1429.79 433.144V429.144H1412.98C1400.83 429.144 1390.98 438.993 1390.98 451.144V470.226H1394.98V451.144C1394.98 441.203 1403.04 433.144 1412.98 433.144H1429.79ZM1394.98 493.149H1390.98V524.276C1390.98 534.218 1382.92 542.276 1372.98 542.276H1274.06V546.276H1372.98C1385.13 546.276 1394.98 536.427 1394.98 524.276V493.149ZM1212.93 546.276V542.276H1180.5C1168.45 542.276 1158.64 551.971 1158.5 564.02L1156.75 713.635L1160.75 713.682L1162.5 564.066C1162.61 554.208 1170.64 546.276 1180.5 546.276H1212.93ZM1397.08 477.488V485.129H1389.44V477.488H1397.08ZM1255.84 548.55H1263.48V540.909H1255.84V548.55ZM1230.15 548.55H1222.51V540.909H1230.15V548.55ZM1472.79 435.236H1480.43V427.595H1472.79V435.236ZM1447.1 435.236H1439.46V427.595H1447.1V435.236ZM1401.03 269.316H1408.67V261.675H1401.03V269.316ZM1375.34 269.316H1367.7V261.675H1375.34V269.316ZM470.614 158.434V150.657H478.391V158.434H470.614ZM595.854 174.477C595.854 162.327 586.004 152.477 573.854 152.477H483.803V156.477H573.854C583.795 156.477 591.854 164.536 591.854 174.477V268.002V330.322H595.854V270.002H694.564V266.002H595.854V174.477ZM596.067 348.546C597.402 357.169 604.857 363.77 613.854 363.77H633.083V363.658H709.05C721.201 363.658 731.05 373.508 731.05 385.658V484.658C731.05 494.599 739.109 502.658 749.05 502.658H915.252V506.658H749.05C736.9 506.658 727.05 496.808 727.05 484.658V385.658C727.05 375.717 718.991 367.658 709.05 367.658H634.957V367.77H613.854C602.644 367.77 593.392 359.386 592.027 348.546H596.067ZM465.423 152.477H386.205C374.055 152.477 364.205 162.327 364.205 174.477V216.3H368.205V174.477C368.205 164.536 376.264 156.477 386.205 156.477H465.423V152.477ZM368.205 231.203H364.205V276.477C364.205 286.418 356.147 294.477 346.205 294.477H336.307V298.477H346.205C358.356 298.477 368.205 288.628 368.205 276.477V231.203ZM294.912 298.482C288.163 298.662 282.748 304.19 282.748 310.982V337.881C282.748 350.031 272.898 359.881 260.748 359.881H40C29.9472 359.881 21.8429 368.115 22.0023 378.166L23.2517 456.946L23.2523 456.984L23.2515 457.023L22.1422 506.073C21.914 516.171 30.0372 524.48 40.1377 524.48H144.999V528.48H40.1377C27.7927 528.48 17.8642 518.324 18.1433 505.983L19.2516 456.97L18.0028 378.229C17.808 365.944 27.7133 355.881 40 355.881H260.748C270.689 355.881 278.748 347.822 278.748 337.881V310.982C278.748 301.98 285.954 294.662 294.912 294.481V298.482ZM196.194 524.48V528.48H217.674C227.615 528.48 235.674 536.539 235.674 546.48V568.149H239.674V546.48C239.674 534.33 229.824 524.48 217.674 524.48H196.194ZM239.674 585.574H235.674V632.63C235.674 644.78 245.523 654.63 257.674 654.63H365.758V650.63H257.674C247.732 650.63 239.674 642.571 239.674 632.63V585.574ZM418.656 650.63V654.63H447.07C457.011 654.63 465.07 662.689 465.07 672.63V776.946H469.07V672.63C469.07 660.48 459.22 650.63 447.07 650.63H418.656ZM234.006 580.608V572.831H241.783V580.608H234.006ZM590.087 335.376V343.153H597.864V335.376H590.087ZM370.986 656.083H378.763V648.305H370.986V656.083ZM395.727 656.083H387.95V648.305H395.727V656.083ZM404.914 656.083H412.691V648.305H404.914V656.083ZM160.029 530.435H152.251V522.658H160.029V530.435ZM168.25 530.435H176.027V522.658H168.25V530.435ZM1154.25 731.034L1154.34 721.658L1163.71 721.744L1163.63 731.12L1154.25 731.034ZM184.248 530.435H192.025V522.658H184.248V530.435ZM1508.25 436.963V433.158H1504.25V436.963C1504.25 446.184 1496.78 453.658 1487.56 453.658C1476.13 453.658 1466.86 462.923 1466.86 474.352V781.658C1466.86 791.599 1458.8 799.658 1448.86 799.658H1404.25H1296.25H1164.31C1160.95 799.658 1158.35 796.727 1158.74 793.392L1156.75 793.158H1158.75V783.658H1154.75V793.047C1154.16 798.71 1158.6 803.658 1164.31 803.658H1296.25H1404.25H1448.86C1461.01 803.658 1470.86 793.808 1470.86 781.658V474.352C1470.86 465.132 1478.34 457.658 1487.56 457.658C1498.99 457.658 1508.25 448.393 1508.25 436.963ZM298.528 300.277H306.305V292.5L298.528 292.5V300.277ZM318.874 300.277H311.096V292.5L318.874 292.5V300.277ZM324.551 300.277H332.328V292.5L324.551 292.5V300.277ZM370.533 227.553H362.756V219.776L370.533 219.776V227.553Z" fill="url(#paint2_linear_1081_3317)"/>
<path fill-rule="evenodd" clip-rule="evenodd" d="M1156.29 64.1858V56.4087H1164.07V64.1858L1156.29 64.1858ZM883.25 80.3433C883.25 70.4022 891.309 62.3433 901.25 62.3433H1151.16V58.3433H901.25C889.1 58.3433 879.25 68.193 879.25 80.3433V151.54H883.25V80.3433ZM883.25 168.191H879.25V169.001C879.25 178.942 871.191 187.001 861.25 187.001H858.483V186.977H849.748C837.598 186.977 827.748 196.827 827.748 208.977V211.77H831.748V208.977C831.748 199.036 839.807 190.977 849.748 190.977H857.718V191.001H861.25C873.4 191.001 883.25 181.152 883.25 169.001V168.191ZM827.748 248.002V228.849H831.748V248.002C831.748 260.152 821.898 270.002 809.748 270.002H751.748V266.002H809.748C819.689 266.002 827.748 257.943 827.748 248.002ZM1267.75 58.3433H1169.22V62.3433H1267.75C1277.69 62.3433 1285.75 70.4021 1285.75 80.3431L1285.75 245.498C1285.75 257.648 1295.6 267.498 1307.75 267.498H1356.75V263.498H1307.75C1297.81 263.498 1289.75 255.439 1289.75 245.498L1289.75 80.3431C1289.75 68.1929 1279.9 58.3433 1267.75 58.3433ZM1514.39 267.498H1417.88V263.498H1514.39C1526.54 263.498 1536.39 273.348 1536.39 285.498V411.144C1536.39 423.294 1526.54 433.144 1514.39 433.144H1490.92V429.144H1514.39C1524.33 429.144 1532.39 421.085 1532.39 411.144V285.498C1532.39 275.557 1524.33 267.498 1514.39 267.498ZM1429.79 433.144V429.144H1412.98C1400.83 429.144 1390.98 438.993 1390.98 451.144V470.226H1394.98V451.144C1394.98 441.203 1403.04 433.144 1412.98 433.144H1429.79ZM1394.98 493.149H1390.98V524.276C1390.98 534.218 1382.92 542.276 1372.98 542.276H1274.06V546.276H1372.98C1385.13 546.276 1394.98 536.427 1394.98 524.276V493.149ZM1212.93 546.276V542.276H1180.5C1168.45 542.276 1158.64 551.971 1158.5 564.02L1156.75 713.635L1160.75 713.682L1162.5 564.066C1162.61 554.208 1170.64 546.276 1180.5 546.276H1212.93ZM1397.08 477.488V485.129H1389.44V477.488H1397.08ZM1255.84 548.55H1263.48V540.909H1255.84V548.55ZM1230.15 548.55H1222.51V540.909H1230.15V548.55ZM1472.79 435.236H1480.43V427.595H1472.79V435.236ZM1447.1 435.236H1439.46V427.595H1447.1V435.236ZM1401.03 269.316H1408.67V261.675H1401.03V269.316ZM1375.34 269.316H1367.7V261.675H1375.34V269.316ZM470.614 158.434V150.657H478.391V158.434H470.614ZM595.854 174.477C595.854 162.327 586.004 152.477 573.854 152.477H483.803V156.477H573.854C583.795 156.477 591.854 164.536 591.854 174.477V268.002V330.322H595.854V270.002H694.564V266.002H595.854V174.477ZM596.067 348.546C597.402 357.169 604.857 363.77 613.854 363.77H633.083V363.658H709.05C721.201 363.658 731.05 373.508 731.05 385.658V484.658C731.05 494.599 739.109 502.658 749.05 502.658H915.252V506.658H749.05C736.9 506.658 727.05 496.808 727.05 484.658V385.658C727.05 375.717 718.991 367.658 709.05 367.658H634.957V367.77H613.854C602.644 367.77 593.392 359.386 592.027 348.546H596.067ZM465.423 152.477H386.205C374.055 152.477 364.205 162.327 364.205 174.477V216.3H368.205V174.477C368.205 164.536 376.264 156.477 386.205 156.477H465.423V152.477ZM368.205 231.203H364.205V276.477C364.205 286.418 356.147 294.477 346.205 294.477H336.307V298.477H346.205C358.356 298.477 368.205 288.628 368.205 276.477V231.203ZM294.912 298.482C288.163 298.662 282.748 304.19 282.748 310.982V337.881C282.748 350.031 272.898 359.881 260.748 359.881H40C29.9472 359.881 21.8429 368.115 22.0023 378.166L23.2517 456.946L23.2523 456.984L23.2515 457.023L22.1422 506.073C21.914 516.171 30.0372 524.48 40.1377 524.48H144.999V528.48H40.1377C27.7927 528.48 17.8642 518.324 18.1433 505.983L19.2516 456.97L18.0028 378.229C17.808 365.944 27.7133 355.881 40 355.881H260.748C270.689 355.881 278.748 347.822 278.748 337.881V310.982C278.748 301.98 285.954 294.662 294.912 294.481V298.482ZM196.194 524.48V528.48H217.674C227.615 528.48 235.674 536.539 235.674 546.48V568.149H239.674V546.48C239.674 534.33 229.824 524.48 217.674 524.48H196.194ZM239.674 585.574H235.674V632.63C235.674 644.78 245.523 654.63 257.674 654.63H365.758V650.63H257.674C247.732 650.63 239.674 642.571 239.674 632.63V585.574ZM418.656 650.63V654.63H447.07C457.011 654.63 465.07 662.689 465.07 672.63V776.946H469.07V672.63C469.07 660.48 459.22 650.63 447.07 650.63H418.656ZM234.006 580.608V572.831H241.783V580.608H234.006ZM590.087 335.376V343.153H597.864V335.376H590.087ZM370.986 656.083H378.763V648.305H370.986V656.083ZM395.727 656.083H387.95V648.305H395.727V656.083ZM404.914 656.083H412.691V648.305H404.914V656.083ZM160.029 530.435H152.251V522.658H160.029V530.435ZM168.25 530.435H176.027V522.658H168.25V530.435ZM1154.25 731.034L1154.34 721.658L1163.71 721.744L1163.63 731.12L1154.25 731.034ZM184.248 530.435H192.025V522.658H184.248V530.435ZM1508.25 436.963V433.158H1504.25V436.963C1504.25 446.184 1496.78 453.658 1487.56 453.658C1476.13 453.658 1466.86 462.923 1466.86 474.352V781.658C1466.86 791.599 1458.8 799.658 1448.86 799.658H1404.25H1296.25H1164.31C1160.95 799.658 1158.35 796.727 1158.74 793.392L1156.75 793.158H1158.75V783.658H1154.75V793.047C1154.16 798.71 1158.6 803.658 1164.31 803.658H1296.25H1404.25H1448.86C1461.01 803.658 1470.86 793.808 1470.86 781.658V474.352C1470.86 465.132 1478.34 457.658 1487.56 457.658C1498.99 457.658 1508.25 448.393 1508.25 436.963ZM298.528 300.277H306.305V292.5L298.528 292.5V300.277ZM318.874 300.277H311.096V292.5L318.874 292.5V300.277ZM324.551 300.277H332.328V292.5L324.551 292.5V300.277ZM370.533 227.553H362.756V219.776L370.533 219.776V227.553Z" fill="url(#paint3_linear_1081_3317)"/>
<rect x="1454.25" y="435.869" width="9.21187" height="9.21187" transform="rotate(-89.4754 1454.25 435.869)" fill="#E4AC70" fill-opacity="0.7"/>
<g opacity="0.7">
<g opacity="0.3" filter="url(#filter0_f_1081_3317)">
<rect x="1450.15" y="424.161" width="17.4984" height="15.4957" fill="#E4AC70"/>
</g>
<g opacity="0.57" filter="url(#filter1_f_1081_3317)">
<rect x="1446.25" y="422.658" width="25.2956" height="18.5023" fill="#E4AC70"/>
</g>
<rect x="1454.92" y="427.308" width="7.48373" height="7.54233" fill="url(#paint4_linear_1081_3317)"/>
</g>
<rect x="1238.82" y="549.522" width="9.21187" height="9.21187" transform="rotate(-89.4754 1238.82 549.522)" fill="#E4AC70" fill-opacity="0.7"/>
<g opacity="0.7">
<g opacity="0.3" filter="url(#filter2_f_1081_3317)">
<rect x="1234.72" y="537.813" width="17.4984" height="15.4957" fill="#E4AC70"/>
</g>
<g opacity="0.57" filter="url(#filter3_f_1081_3317)">
<rect x="1230.82" y="536.31" width="25.2956" height="18.5023" fill="#E4AC70"/>
</g>
<rect x="1239.49" y="540.96" width="7.48373" height="7.54233" fill="url(#paint5_linear_1081_3317)"/>
</g>
<rect x="1383.25" y="269.869" width="9.21187" height="9.21187" transform="rotate(-89.4754 1383.25 269.869)" fill="#E4AC70" fill-opacity="0.7"/>
<g opacity="0.7">
<g opacity="0.3" filter="url(#filter4_f_1081_3317)">
<rect x="1379.63" y="258.333" width="17.4984" height="15.4957" fill="#E4AC70"/>
</g>
<g opacity="0.57" filter="url(#filter5_f_1081_3317)">
<rect x="1375.73" y="256.83" width="25.2956" height="18.5023" fill="#E4AC70"/>
</g>
<rect x="1384.4" y="261.48" width="7.48373" height="7.54233" fill="url(#paint6_linear_1081_3317)"/>
</g>
<g filter="url(#filter6_dd_1081_3317)">
<rect x="441.126" y="629.41" width="47.2476" height="47.2476" rx="5" fill="#EFF1F1"/>
<rect x="441.326" y="629.61" width="46.8476" height="46.8476" rx="4.8" stroke="#F7F7F6" stroke-width="0.4"/>
</g>
<path d="M460.629 638.669L452.49 638.669C450.821 638.669 449.569 640.028 449.569 641.595L449.569 649.012C449.569 650.683 450.925 651.937 452.49 651.937L460.629 651.937C462.299 651.937 463.551 650.579 463.551 649.012L463.551 641.595C463.551 640.028 462.299 638.669 460.629 638.669ZM462.09 649.012C462.09 649.848 461.464 650.475 460.629 650.475L452.49 650.475C451.656 650.475 451.03 649.848 451.03 649.012L451.03 641.595C451.03 640.759 451.656 640.132 452.49 640.132L460.629 640.132C461.464 640.132 462.09 640.759 462.09 641.595L462.09 649.012Z" fill="url(#paint7_linear_1081_3317)"/>
<path d="M460.629 638.669L452.49 638.669C450.821 638.669 449.569 640.028 449.569 641.595L449.569 649.012C449.569 650.683 450.925 651.937 452.49 651.937L460.629 651.937C462.299 651.937 463.551 650.579 463.551 649.012L463.551 641.595C463.551 640.028 462.299 638.669 460.629 638.669ZM462.09 649.012C462.09 649.848 461.464 650.475 460.629 650.475L452.49 650.475C451.656 650.475 451.03 649.848 451.03 649.012L451.03 641.595C451.03 640.759 451.656 640.132 452.49 640.132L460.629 640.132C461.464 640.132 462.09 640.759 462.09 641.595L462.09 649.012Z" fill="url(#paint8_linear_1081_3317)" fill-opacity="0.3"/>
<path d="M454.368 642.847L458.751 642.847L458.751 647.235L454.368 647.235L454.368 642.847Z" fill="url(#paint9_linear_1081_3317)"/>
<path d="M454.368 642.847L458.751 642.847L458.751 647.235L454.368 647.235L454.368 642.847Z" fill="url(#paint10_linear_1081_3317)" fill-opacity="0.3"/>
<path d="M460.42 654.34L452.49 654.34C450.925 654.34 449.673 655.593 449.673 657.265L449.673 664.473C449.673 666.04 450.925 667.398 452.49 667.398L460.42 667.398C461.985 667.398 463.237 666.145 463.237 664.473L463.237 657.265C463.342 655.593 461.985 654.34 460.42 654.34ZM461.881 664.369C461.881 665.204 461.255 665.831 460.42 665.831L452.49 665.831C451.655 665.831 451.029 665.204 451.029 664.369L451.029 657.16C451.029 656.325 451.655 655.698 452.49 655.698L460.42 655.698C461.255 655.698 461.881 656.325 461.881 657.16L461.881 664.369Z" fill="url(#paint11_linear_1081_3317)"/>
<path d="M460.42 654.34L452.49 654.34C450.925 654.34 449.673 655.593 449.673 657.265L449.673 664.473C449.673 666.04 450.925 667.398 452.49 667.398L460.42 667.398C461.985 667.398 463.237 666.145 463.237 664.473L463.237 657.265C463.342 655.593 461.985 654.34 460.42 654.34ZM461.881 664.369C461.881 665.204 461.255 665.831 460.42 665.831L452.49 665.831C451.655 665.831 451.029 665.204 451.029 664.369L451.029 657.16C451.029 656.325 451.655 655.698 452.49 655.698L460.42 655.698C461.255 655.698 461.881 656.325 461.881 657.16L461.881 664.369Z" fill="url(#paint12_linear_1081_3317)" fill-opacity="0.3"/>
<path d="M454.368 658.413L458.646 658.413L458.646 662.697L454.368 662.697L454.368 658.413Z" fill="url(#paint13_linear_1081_3317)"/>
<path d="M454.368 658.413L458.646 658.413L458.646 662.697L454.368 662.697L454.368 658.413Z" fill="url(#paint14_linear_1081_3317)" fill-opacity="0.3"/>
<path d="M468.769 651.937L476.907 651.937C478.577 651.937 479.829 650.579 479.829 649.012L479.829 641.595C479.829 639.923 478.472 638.669 476.907 638.669L468.769 638.669C467.099 638.669 465.847 640.028 465.847 641.595L465.847 649.012C465.847 650.683 467.203 651.937 468.769 651.937ZM467.308 641.595C467.308 640.759 467.934 640.132 468.769 640.132L476.907 640.132C477.742 640.132 478.368 640.759 478.368 641.595L478.368 649.012C478.368 649.848 477.742 650.475 476.907 650.475L468.769 650.475C467.934 650.475 467.308 649.848 467.308 649.012L467.308 641.595Z" fill="url(#paint15_linear_1081_3317)"/>
<path d="M468.769 651.937L476.907 651.937C478.577 651.937 479.829 650.579 479.829 649.012L479.829 641.595C479.829 639.923 478.472 638.669 476.907 638.669L468.769 638.669C467.099 638.669 465.847 640.028 465.847 641.595L465.847 649.012C465.847 650.683 467.203 651.937 468.769 651.937ZM467.308 641.595C467.308 640.759 467.934 640.132 468.769 640.132L476.907 640.132C477.742 640.132 478.368 640.759 478.368 641.595L478.368 649.012C478.368 649.848 477.742 650.475 476.907 650.475L468.769 650.475C467.934 650.475 467.308 649.848 467.308 649.012L467.308 641.595Z" fill="url(#paint16_linear_1081_3317)" fill-opacity="0.3"/>
<path d="M470.959 642.847L475.342 642.847L475.342 647.235L470.959 647.235L470.959 642.847Z" fill="url(#paint17_linear_1081_3317)"/>
<path d="M470.959 642.847L475.342 642.847L475.342 647.235L470.959 647.235L470.959 642.847Z" fill="url(#paint18_linear_1081_3317)" fill-opacity="0.3"/>
<path d="M466.785 659.981L471.272 659.981C471.689 659.981 472.002 659.668 472.002 659.25L472.002 654.758C472.002 654.34 471.689 654.027 471.272 654.027L466.785 654.027C466.368 654.027 466.055 654.34 466.055 654.758L466.055 659.25C466.055 659.668 466.368 659.981 466.785 659.981Z" fill="url(#paint19_linear_1081_3317)"/>
<path d="M466.785 659.981L471.272 659.981C471.689 659.981 472.002 659.668 472.002 659.25L472.002 654.758C472.002 654.34 471.689 654.027 471.272 654.027L466.785 654.027C466.368 654.027 466.055 654.34 466.055 654.758L466.055 659.25C466.055 659.668 466.368 659.981 466.785 659.981Z" fill="url(#paint20_linear_1081_3317)" fill-opacity="0.3"/>
<path d="M477.01 654.969L477.01 656.223C477.01 656.641 477.427 657.058 477.845 657.058L479.097 657.058C479.514 657.058 479.932 656.641 479.932 656.223L479.932 654.969C479.932 654.551 479.514 654.133 479.097 654.133L477.845 654.133C477.427 654.133 477.01 654.447 477.01 654.969Z" fill="url(#paint21_linear_1081_3317)"/>
<path d="M477.01 654.969L477.01 656.223C477.01 656.641 477.427 657.058 477.845 657.058L479.097 657.058C479.514 657.058 479.932 656.641 479.932 656.223L479.932 654.969C479.932 654.551 479.514 654.133 479.097 654.133L477.845 654.133C477.427 654.133 477.01 654.447 477.01 654.969Z" fill="url(#paint22_linear_1081_3317)" fill-opacity="0.3"/>
<path d="M467.099 667.397L468.664 667.397C469.082 667.397 469.395 667.084 469.395 666.666L469.395 665.099C469.395 664.681 469.082 664.368 468.664 664.368L467.099 664.368C466.682 664.368 466.369 664.681 466.369 665.099L466.369 666.666C466.369 667.084 466.682 667.397 467.099 667.397Z" fill="url(#paint23_linear_1081_3317)"/>
<path d="M467.099 667.397L468.664 667.397C469.082 667.397 469.395 667.084 469.395 666.666L469.395 665.099C469.395 664.681 469.082 664.368 468.664 664.368L467.099 664.368C466.682 664.368 466.369 664.681 466.369 665.099L466.369 666.666C466.369 667.084 466.682 667.397 467.099 667.397Z" fill="url(#paint24_linear_1081_3317)" fill-opacity="0.3"/>
<path d="M478.888 659.563L475.653 659.563C475.131 659.563 474.714 659.981 474.714 660.503L474.714 661.966L473.149 661.966C472.523 661.966 472.105 662.384 472.105 663.011L472.105 666.249C472.105 666.772 472.523 667.19 473.044 667.19L478.888 667.294C479.409 667.294 479.827 666.876 479.827 666.354L479.827 660.503C479.827 659.981 479.409 659.563 478.888 659.563Z" fill="url(#paint25_linear_1081_3317)"/>
<path d="M478.888 659.563L475.653 659.563C475.131 659.563 474.714 659.981 474.714 660.503L474.714 661.966L473.149 661.966C472.523 661.966 472.105 662.384 472.105 663.011L472.105 666.249C472.105 666.772 472.523 667.19 473.044 667.19L478.888 667.294C479.409 667.294 479.827 666.876 479.827 666.354L479.827 660.503C479.827 659.981 479.409 659.563 478.888 659.563Z" fill="url(#paint26_linear_1081_3317)" fill-opacity="0.3"/>
<g filter="url(#filter7_dd_1081_3317)">
<rect x="711.055" y="470.513" width="48" height="48" rx="5" fill="#F6F6F5"/>
<rect x="711.255" y="470.713" width="47.6" height="47.6" rx="4.8" stroke="#F7F7F6" stroke-width="0.4"/>
</g>
<path fill-rule="evenodd" clip-rule="evenodd" d="M749.016 492.972C750.784 493.618 752.018 495.005 752.161 496.574L752.519 500.505C752.674 502.195 751.505 503.717 749.668 504.333C749.245 505.69 747.752 506.68 745.986 506.68C744.345 506.68 742.948 505.84 742.417 504.627H727.695C727.163 505.84 725.766 506.68 724.125 506.68C722.359 506.68 720.867 505.69 720.445 504.333C718.608 503.717 717.437 502.194 717.591 500.505L717.951 496.574C718.094 495.005 719.327 493.619 721.095 492.972L722.684 486.844C723.264 484.603 726.008 482.781 728.799 482.781H741.312C744.104 482.781 746.846 484.604 747.428 486.844L749.016 492.972ZM747.648 503.62C747.672 503.229 748.008 502.898 748.473 502.809C749.697 502.576 750.485 501.682 750.389 500.636L750.03 496.706C749.937 495.685 748.998 494.758 747.747 494.453C747.338 494.352 747.04 494.062 746.99 493.714C746.983 493.665 746.978 493.616 746.974 493.567C746.973 493.56 746.973 493.553 746.972 493.546C746.971 493.527 746.97 493.508 746.965 493.489L745.338 487.209C744.961 485.759 743.118 484.535 741.312 484.535H728.799C726.993 484.535 725.149 485.759 724.774 487.209L723.146 493.49C723.142 493.507 723.14 493.524 723.139 493.542C723.139 493.55 723.138 493.558 723.137 493.566L723.136 493.576C723.132 493.622 723.127 493.669 723.121 493.716C723.07 494.064 722.773 494.352 722.365 494.453C721.113 494.758 720.175 495.685 720.082 496.706L719.722 500.636C719.627 501.683 720.414 502.576 721.639 502.809C722.103 502.898 722.441 503.229 722.464 503.62C722.508 504.353 723.238 504.926 724.125 504.926C724.991 504.926 725.702 504.387 725.779 503.672C725.828 503.22 726.29 502.873 726.844 502.873H743.267C743.821 502.873 744.284 503.22 744.332 503.672C744.409 504.387 745.12 504.926 745.986 504.926C746.874 504.926 747.603 504.352 747.648 503.62ZM723.122 498.785C723.122 497.691 724.204 496.804 725.537 496.804C726.871 496.804 727.952 497.691 727.952 498.785C727.952 499.881 726.871 500.767 725.537 500.767C724.204 500.767 723.122 499.881 723.122 498.785ZM742.159 498.785C742.159 497.691 743.241 496.804 744.574 496.804C745.909 496.804 746.989 497.691 746.989 498.785C746.989 499.881 745.909 500.767 744.574 500.767C743.241 500.767 742.159 499.881 742.159 498.785ZM731.774 493.899H734.01L732.899 497.383C732.786 497.736 733.324 497.974 733.615 497.699L739.587 492.052C739.823 491.829 739.632 491.478 739.274 491.478H736.838L738.132 488.843C738.244 488.615 738.042 488.367 737.746 488.367H733.996C733.911 488.367 733.829 488.388 733.759 488.428C733.69 488.468 733.637 488.524 733.606 488.589L731.384 493.43C731.28 493.656 731.482 493.899 731.774 493.899Z" fill="url(#paint27_linear_1081_3317)"/>
<path fill-rule="evenodd" clip-rule="evenodd" d="M749.016 492.972C750.784 493.618 752.018 495.005 752.161 496.574L752.519 500.505C752.674 502.195 751.505 503.717 749.668 504.333C749.245 505.69 747.752 506.68 745.986 506.68C744.345 506.68 742.948 505.84 742.417 504.627H727.695C727.163 505.84 725.766 506.68 724.125 506.68C722.359 506.68 720.867 505.69 720.445 504.333C718.608 503.717 717.437 502.194 717.591 500.505L717.951 496.574C718.094 495.005 719.327 493.619 721.095 492.972L722.684 486.844C723.264 484.603 726.008 482.781 728.799 482.781H741.312C744.104 482.781 746.846 484.604 747.428 486.844L749.016 492.972ZM747.648 503.62C747.672 503.229 748.008 502.898 748.473 502.809C749.697 502.576 750.485 501.682 750.389 500.636L750.03 496.706C749.937 495.685 748.998 494.758 747.747 494.453C747.338 494.352 747.04 494.062 746.99 493.714C746.983 493.665 746.978 493.616 746.974 493.567C746.973 493.56 746.973 493.553 746.972 493.546C746.971 493.527 746.97 493.508 746.965 493.489L745.338 487.209C744.961 485.759 743.118 484.535 741.312 484.535H728.799C726.993 484.535 725.149 485.759 724.774 487.209L723.146 493.49C723.142 493.507 723.14 493.524 723.139 493.542C723.139 493.55 723.138 493.558 723.137 493.566L723.136 493.576C723.132 493.622 723.127 493.669 723.121 493.716C723.07 494.064 722.773 494.352 722.365 494.453C721.113 494.758 720.175 495.685 720.082 496.706L719.722 500.636C719.627 501.683 720.414 502.576 721.639 502.809C722.103 502.898 722.441 503.229 722.464 503.62C722.508 504.353 723.238 504.926 724.125 504.926C724.991 504.926 725.702 504.387 725.779 503.672C725.828 503.22 726.29 502.873 726.844 502.873H743.267C743.821 502.873 744.284 503.22 744.332 503.672C744.409 504.387 745.12 504.926 745.986 504.926C746.874 504.926 747.603 504.352 747.648 503.62ZM723.122 498.785C723.122 497.691 724.204 496.804 725.537 496.804C726.871 496.804 727.952 497.691 727.952 498.785C727.952 499.881 726.871 500.767 725.537 500.767C724.204 500.767 723.122 499.881 723.122 498.785ZM742.159 498.785C742.159 497.691 743.241 496.804 744.574 496.804C745.909 496.804 746.989 497.691 746.989 498.785C746.989 499.881 745.909 500.767 744.574 500.767C743.241 500.767 742.159 499.881 742.159 498.785ZM731.774 493.899H734.01L732.899 497.383C732.786 497.736 733.324 497.974 733.615 497.699L739.587 492.052C739.823 491.829 739.632 491.478 739.274 491.478H736.838L738.132 488.843C738.244 488.615 738.042 488.367 737.746 488.367H733.996C733.911 488.367 733.829 488.388 733.759 488.428C733.69 488.468 733.637 488.524 733.606 488.589L731.384 493.43C731.28 493.656 731.482 493.899 731.774 493.899Z" fill="url(#paint28_linear_1081_3317)" fill-opacity="0.3"/>
<g filter="url(#filter8_dd_1081_3317)">
<rect x="1375.03" y="407.845" width="48.127" height="48.127" rx="5" fill="#EFF2F1"/>
<rect x="1375.23" y="408.045" width="47.727" height="47.727" rx="4.8" stroke="#E7EBEC" stroke-width="0.4"/>
</g>
<g clip-path="url(#clip1_1081_3317)">
<path d="M1398.72 417.114C1394.37 417.114 1390.84 420.642 1390.84 425C1390.84 429.358 1394.37 432.887 1398.72 432.887C1403.08 432.887 1406.61 429.358 1406.61 425C1406.61 420.642 1403.08 417.114 1398.72 417.114ZM1398.72 430.673C1395.6 430.673 1393.05 428.127 1393.05 425C1393.05 421.873 1395.6 419.327 1398.72 419.327C1401.85 419.327 1404.4 421.873 1404.4 425C1404.4 428.127 1401.85 430.673 1398.72 430.673Z" fill="url(#paint29_linear_1081_3317)"/>
<path d="M1398.72 417.114C1394.37 417.114 1390.84 420.642 1390.84 425C1390.84 429.358 1394.37 432.887 1398.72 432.887C1403.08 432.887 1406.61 429.358 1406.61 425C1406.61 420.642 1403.08 417.114 1398.72 417.114ZM1398.72 430.673C1395.6 430.673 1393.05 428.127 1393.05 425C1393.05 421.873 1395.6 419.327 1398.72 419.327C1401.85 419.327 1404.4 421.873 1404.4 425C1404.4 428.127 1401.85 430.673 1398.72 430.673Z" fill="url(#paint30_linear_1081_3317)" fill-opacity="0.3"/>
<path d="M1398.41 430.895C1389.62 430.895 1384.57 439.641 1384.57 447.528H1412.24C1412.24 439.641 1407.72 430.895 1398.41 430.895ZM1398.41 433.108C1406.06 433.108 1408.83 439.89 1409.82 445.314H1386.99C1388 439.89 1390.83 433.108 1398.41 433.108Z" fill="url(#paint31_linear_1081_3317)"/>
<path d="M1398.41 430.895C1389.62 430.895 1384.57 439.641 1384.57 447.528H1412.24C1412.24 439.641 1407.72 430.895 1398.41 430.895ZM1398.41 433.108C1406.06 433.108 1408.83 439.89 1409.82 445.314H1386.99C1388 439.89 1390.83 433.108 1398.41 433.108Z" fill="url(#paint32_linear_1081_3317)" fill-opacity="0.3"/>
<path d="M1398.72 440.914C1398.45 440.914 1398.19 440.756 1398.08 440.511L1394.79 433.939C1394.68 433.709 1394.69 433.449 1394.82 433.233C1394.95 433.017 1395.18 432.887 1395.44 432.887H1396.59C1396.87 432.887 1397.13 433.046 1397.24 433.291L1398.45 435.712C1398.51 435.813 1398.61 435.87 1398.72 435.87C1398.84 435.87 1398.94 435.813 1399 435.712L1400.21 433.291C1400.34 433.046 1400.58 432.887 1400.86 432.887H1402.01C1402.27 432.887 1402.5 433.017 1402.63 433.233C1402.76 433.449 1402.77 433.723 1402.66 433.939L1399.37 440.511C1399.24 440.756 1399 440.914 1398.72 440.914Z" fill="url(#paint33_linear_1081_3317)"/>
<path d="M1398.72 440.914C1398.45 440.914 1398.19 440.756 1398.08 440.511L1394.79 433.939C1394.68 433.709 1394.69 433.449 1394.82 433.233C1394.95 433.017 1395.18 432.887 1395.44 432.887H1396.59C1396.87 432.887 1397.13 433.046 1397.24 433.291L1398.45 435.712C1398.51 435.813 1398.61 435.87 1398.72 435.87C1398.84 435.87 1398.94 435.813 1399 435.712L1400.21 433.291C1400.34 433.046 1400.58 432.887 1400.86 432.887H1402.01C1402.27 432.887 1402.5 433.017 1402.63 433.233C1402.76 433.449 1402.77 433.723 1402.66 433.939L1399.37 440.511C1399.24 440.756 1399 440.914 1398.72 440.914Z" fill="url(#paint34_linear_1081_3317)" fill-opacity="0.3"/>
</g>
<g opacity="0.3" filter="url(#filter9_f_1081_3317)">
<rect x="714.26" y="259.344" width="18.7288" height="16.2254" fill="#FFEDB5"/>
</g>
<g opacity="0.57" filter="url(#filter10_f_1081_3317)">
<rect x="710.087" y="257.77" width="27.0742" height="19.3735" fill="#FEE0AD"/>
</g>
<g filter="url(#filter11_f_1081_3317)">
<path d="M719.455 264.939H727.284C727.334 264.939 727.374 265.112 727.374 265.325V272.538C727.374 272.751 727.334 272.924 727.284 272.924H719.455C719.405 272.924 719.364 272.751 719.364 272.538V265.325C719.364 265.112 719.405 264.939 719.455 264.939Z" fill="#F9D297"/>
</g>
<path d="M726.986 263.656H719.752C719.538 263.656 719.364 263.829 719.364 264.043V271.255C719.364 271.468 719.538 271.641 719.752 271.641H726.986C727.2 271.641 727.374 271.468 727.374 271.255V264.043C727.374 263.829 727.2 263.656 726.986 263.656Z" fill="#E4AC70"/>
<rect x="719.364" y="263.64" width="8.00994" height="7.89746" rx="0.4" fill="url(#paint35_linear_1081_3317)" fill-opacity="0.5"/>
<rect width="7.77715" height="7.77715" transform="matrix(-1 0 0 1 742.523 263.64)" fill="#E6EBEB"/>
<rect width="7.77715" height="7.77715" transform="matrix(-1 0 0 1 833.419 216.421)" fill="#E4E9E3"/>
<rect width="7.77715" height="7.77715" transform="matrix(-1 0 0 1 885.117 155.977)" fill="#EBEEE7"/>
<rect width="7.77715" height="7.77715" transform="matrix(-1 0 0 1 711.055 263.76)" fill="#E6EBEB"/>
<g filter="url(#filter12_dd_1081_3317)">
<rect x="570.243" y="241.651" width="48" height="48" rx="5" fill="#F5F2EC"/>
<rect x="570.443" y="241.851" width="47.6" height="47.6" rx="4.8" stroke="#F7F7F6" stroke-width="0.4"/>
</g>
<path d="M586.752 250.551C586.752 250.551 581.564 251.328 579.576 253.191C577.587 255.054 576.45 260.7 576.237 265.146C577.373 266.468 582.843 266.575 582.843 266.575L582.772 281.548C582.772 281.548 585.258 282.87 594.137 282.87C603.016 282.87 605.856 280.948 605.856 280.948V266.558C605.856 266.558 611.254 266.107 612.249 265.146C612.249 263.885 611.45 254.76 608.982 253.07C607.607 252.266 604.421 251.371 602.829 250.94C602.5 250.885 602.16 250.935 601.871 251.079C601.583 251.223 601.367 251.451 601.266 251.721C601.18 251.931 601.183 252.159 601.274 252.367C601.364 252.575 601.537 252.75 601.763 252.862C601.763 252.862 606.802 254.568 607.121 254.839C607.441 255.109 609.337 259.379 609.266 263.464C608.116 263.658 606.954 263.798 605.786 263.885C605.786 263.885 605.714 259.919 606.14 258.658C606.14 258.658 606.14 257.516 605.217 257.456C604.879 257.389 604.522 257.432 604.22 257.576C603.917 257.721 603.69 257.957 603.583 258.237C603.181 260.444 602.991 262.674 603.016 264.906V279.205C600.266 280.274 597.269 280.807 594.243 280.768C591.178 280.789 588.126 280.424 585.187 279.686L585.426 266.575C585.426 266.575 585.684 260.821 584.903 259.078C584.768 258.798 584.528 258.565 584.22 258.413C583.911 258.26 583.552 258.199 583.198 258.237C582.864 258.293 582.568 258.455 582.37 258.69C582.172 258.924 582.087 259.214 582.133 259.499C582.514 260.917 582.657 262.373 582.559 263.825C581.332 263.91 580.101 263.702 579.007 263.224C579.007 263.224 579.717 256.248 581.707 254.78C581.707 254.78 585.751 252.79 588.304 252.573C588.838 252.509 589.21 252.088 589.195 251.986C589.137 251.547 588.61 250.447 587.757 250.432C587.554 250.441 586.752 250.551 586.752 250.551Z" fill="url(#paint36_linear_1081_3317)"/>
<path d="M586.752 250.551C586.752 250.551 581.564 251.328 579.576 253.191C577.587 255.054 576.45 260.7 576.237 265.146C577.373 266.468 582.843 266.575 582.843 266.575L582.772 281.548C582.772 281.548 585.258 282.87 594.137 282.87C603.016 282.87 605.856 280.948 605.856 280.948V266.558C605.856 266.558 611.254 266.107 612.249 265.146C612.249 263.885 611.45 254.76 608.982 253.07C607.607 252.266 604.421 251.371 602.829 250.94C602.5 250.885 602.16 250.935 601.871 251.079C601.583 251.223 601.367 251.451 601.266 251.721C601.18 251.931 601.183 252.159 601.274 252.367C601.364 252.575 601.537 252.75 601.763 252.862C601.763 252.862 606.802 254.568 607.121 254.839C607.441 255.109 609.337 259.379 609.266 263.464C608.116 263.658 606.954 263.798 605.786 263.885C605.786 263.885 605.714 259.919 606.14 258.658C606.14 258.658 606.14 257.516 605.217 257.456C604.879 257.389 604.522 257.432 604.22 257.576C603.917 257.721 603.69 257.957 603.583 258.237C603.181 260.444 602.991 262.674 603.016 264.906V279.205C600.266 280.274 597.269 280.807 594.243 280.768C591.178 280.789 588.126 280.424 585.187 279.686L585.426 266.575C585.426 266.575 585.684 260.821 584.903 259.078C584.768 258.798 584.528 258.565 584.22 258.413C583.911 258.26 583.552 258.199 583.198 258.237C582.864 258.293 582.568 258.455 582.37 258.69C582.172 258.924 582.087 259.214 582.133 259.499C582.514 260.917 582.657 262.373 582.559 263.825C581.332 263.91 580.101 263.702 579.007 263.224C579.007 263.224 579.717 256.248 581.707 254.78C581.707 254.78 585.751 252.79 588.304 252.573C588.838 252.509 589.21 252.088 589.195 251.986C589.137 251.547 588.61 250.447 587.757 250.432C587.554 250.441 586.752 250.551 586.752 250.551Z" fill="url(#paint37_linear_1081_3317)" fill-opacity="0.3"/>
<path d="M586.837 251.808C586.837 251.808 589.529 257.101 594.749 257.101C599.969 257.101 603.425 252.09 603.425 252.09H601.223C601.223 252.09 597.093 255.337 594.749 255.337C592.405 255.337 589.057 251.808 589.057 251.808L586.837 251.808Z" fill="url(#paint38_linear_1081_3317)"/>
<path d="M586.837 251.808C586.837 251.808 589.529 257.101 594.749 257.101C599.969 257.101 603.425 252.09 603.425 252.09H601.223C601.223 252.09 597.093 255.337 594.749 255.337C592.405 255.337 589.057 251.808 589.057 251.808L586.837 251.808Z" fill="url(#paint39_linear_1081_3317)" fill-opacity="0.3"/>
<path d="M588.424 262.1C588.91 262.1 589.152 262.34 589.152 262.821V270.481C589.152 270.962 588.91 271.202 588.424 271.202C587.939 271.202 587.696 270.962 587.696 270.481V262.821C587.696 262.34 587.939 262.1 588.424 262.1Z" fill="url(#paint40_linear_1081_3317)"/>
<path d="M588.424 262.1C588.91 262.1 589.152 262.34 589.152 262.821V270.481C589.152 270.962 588.91 271.202 588.424 271.202C587.939 271.202 587.696 270.962 587.696 270.481V262.821C587.696 262.34 587.939 262.1 588.424 262.1Z" fill="url(#paint41_linear_1081_3317)" fill-opacity="0.3"/>
<path d="M590.815 262.1C591.3 262.1 591.543 262.34 591.543 262.821V270.481C591.543 270.962 591.3 271.202 590.815 271.202C590.33 271.202 590.087 270.962 590.087 270.481V262.821C590.087 262.34 590.33 262.1 590.815 262.1Z" fill="url(#paint42_linear_1081_3317)"/>
<path d="M590.815 262.1C591.3 262.1 591.543 262.34 591.543 262.821V270.481C591.543 270.962 591.3 271.202 590.815 271.202C590.33 271.202 590.087 270.962 590.087 270.481V262.821C590.087 262.34 590.33 262.1 590.815 262.1Z" fill="url(#paint43_linear_1081_3317)" fill-opacity="0.3"/>
<path d="M593.204 262.1C593.689 262.1 593.932 262.34 593.932 262.821V270.481C593.932 270.962 593.689 271.202 593.204 271.202C592.719 271.202 592.476 270.962 592.476 270.481V262.821C592.476 262.34 592.719 262.1 593.204 262.1Z" fill="url(#paint44_linear_1081_3317)"/>
<path d="M593.204 262.1C593.689 262.1 593.932 262.34 593.932 262.821V270.481C593.932 270.962 593.689 271.202 593.204 271.202C592.719 271.202 592.476 270.962 592.476 270.481V262.821C592.476 262.34 592.719 262.1 593.204 262.1Z" fill="url(#paint45_linear_1081_3317)" fill-opacity="0.3"/>
<path d="M595.7 262.1C596.185 262.1 596.428 262.34 596.428 262.821V270.481C596.428 270.962 596.185 271.202 595.7 271.202C595.214 271.202 594.972 270.962 594.972 270.481V262.821C594.972 262.34 595.214 262.1 595.7 262.1Z" fill="url(#paint46_linear_1081_3317)"/>
<path d="M595.7 262.1C596.185 262.1 596.428 262.34 596.428 262.821V270.481C596.428 270.962 596.185 271.202 595.7 271.202C595.214 271.202 594.972 270.962 594.972 270.481V262.821C594.972 262.34 595.214 262.1 595.7 262.1Z" fill="url(#paint47_linear_1081_3317)" fill-opacity="0.3"/>
<path d="M598.087 262.1C598.573 262.1 598.815 262.34 598.815 262.821V270.481C598.815 270.962 598.573 271.202 598.087 271.202C597.602 271.202 597.359 270.962 597.359 270.481V262.821C597.359 262.34 597.602 262.1 598.087 262.1Z" fill="url(#paint48_linear_1081_3317)"/>
<path d="M598.087 262.1C598.573 262.1 598.815 262.34 598.815 262.821V270.481C598.815 270.962 598.573 271.202 598.087 271.202C597.602 271.202 597.359 270.962 597.359 270.481V262.821C597.359 262.34 597.602 262.1 598.087 262.1Z" fill="url(#paint49_linear_1081_3317)" fill-opacity="0.3"/>
<path d="M600.475 262.1C600.96 262.1 601.203 262.34 601.203 262.821V270.481C601.203 270.962 600.96 271.202 600.475 271.202C599.99 271.202 599.747 270.962 599.747 270.481V262.821C599.747 262.34 599.99 262.1 600.475 262.1Z" fill="url(#paint50_linear_1081_3317)"/>
<path d="M600.475 262.1C600.96 262.1 601.203 262.34 601.203 262.821V270.481C601.203 270.962 600.96 271.202 600.475 271.202C599.99 271.202 599.747 270.962 599.747 270.481V262.821C599.747 262.34 599.99 262.1 600.475 262.1Z" fill="url(#paint51_linear_1081_3317)" fill-opacity="0.3"/>
<g filter="url(#filter13_dd_1081_3317)">
<rect x="342.809" y="198.398" width="48" height="48" rx="5" fill="#F7F7F5"/>
<rect x="343.009" y="198.598" width="47.6" height="47.6" rx="4.8" stroke="#F7F7F6" stroke-width="0.4"/>
</g>
<path fill-rule="evenodd" clip-rule="evenodd" d="M358.786 213.617L357.206 213.621C355.965 213.625 354.77 214.344 354.285 215.581C353.777 216.879 353.21 218.628 352.702 220.726C351.783 224.525 351.051 229.506 351.239 235.058C351.298 236.809 352.755 238.125 354.448 238.125H381.496C383.182 238.125 384.631 236.822 384.704 235.081C384.875 230.992 384.718 224.989 383.475 220.231C382.914 218.082 382.102 216.07 380.906 214.607C380.293 213.855 379.394 213.559 378.589 213.561L376.51 213.567C376.028 212.079 375.202 210.216 374.008 208.596C372.555 206.622 370.39 204.798 367.472 204.798C364.539 204.798 362.435 206.648 361.061 208.646C359.946 210.267 359.205 212.125 358.786 213.617ZM361.402 213.609L373.862 213.574C373.434 212.453 372.81 211.185 371.995 210.079C370.757 208.398 369.245 207.298 367.472 207.298C365.716 207.298 364.273 208.387 363.121 210.063C362.349 211.184 361.779 212.474 361.402 213.609ZM378.97 216.188C378.933 216.142 378.821 216.06 378.597 216.061L375.577 216.07L359.769 216.114L357.213 216.121C356.91 216.122 356.692 216.292 356.613 216.493C356.212 217.517 355.757 218.885 355.329 220.531C357.63 222.226 361.227 224.081 365.342 224.767C365.901 223.941 366.847 223.398 367.92 223.398C369.063 223.398 370.063 224.015 370.603 224.934C373.994 224.557 377.519 223.169 380.858 220.151C380.362 218.479 379.732 217.121 378.97 216.188ZM370.896 227.416C370.508 228.692 369.322 229.62 367.92 229.62C366.449 229.62 365.217 228.599 364.893 227.227C360.84 226.544 357.267 224.855 354.724 223.158C354.054 226.485 353.588 230.541 353.737 234.973C353.749 235.319 354.043 235.625 354.448 235.625H381.496C381.899 235.625 382.192 235.323 382.206 234.977C382.348 231.57 382.248 226.915 381.503 222.888C378.048 225.681 374.409 227.023 370.896 227.416ZM369.731 226.509C369.731 227.509 368.92 228.32 367.92 228.32C366.92 228.32 366.109 227.509 366.109 226.509C366.109 225.509 366.92 224.698 367.92 224.698C368.92 224.698 369.731 225.509 369.731 226.509Z" fill="url(#paint52_linear_1081_3317)"/>
<path fill-rule="evenodd" clip-rule="evenodd" d="M358.786 213.617L357.206 213.621C355.965 213.625 354.77 214.344 354.285 215.581C353.777 216.879 353.21 218.628 352.702 220.726C351.783 224.525 351.051 229.506 351.239 235.058C351.298 236.809 352.755 238.125 354.448 238.125H381.496C383.182 238.125 384.631 236.822 384.704 235.081C384.875 230.992 384.718 224.989 383.475 220.231C382.914 218.082 382.102 216.07 380.906 214.607C380.293 213.855 379.394 213.559 378.589 213.561L376.51 213.567C376.028 212.079 375.202 210.216 374.008 208.596C372.555 206.622 370.39 204.798 367.472 204.798C364.539 204.798 362.435 206.648 361.061 208.646C359.946 210.267 359.205 212.125 358.786 213.617ZM361.402 213.609L373.862 213.574C373.434 212.453 372.81 211.185 371.995 210.079C370.757 208.398 369.245 207.298 367.472 207.298C365.716 207.298 364.273 208.387 363.121 210.063C362.349 211.184 361.779 212.474 361.402 213.609ZM378.97 216.188C378.933 216.142 378.821 216.06 378.597 216.061L375.577 216.07L359.769 216.114L357.213 216.121C356.91 216.122 356.692 216.292 356.613 216.493C356.212 217.517 355.757 218.885 355.329 220.531C357.63 222.226 361.227 224.081 365.342 224.767C365.901 223.941 366.847 223.398 367.92 223.398C369.063 223.398 370.063 224.015 370.603 224.934C373.994 224.557 377.519 223.169 380.858 220.151C380.362 218.479 379.732 217.121 378.97 216.188ZM370.896 227.416C370.508 228.692 369.322 229.62 367.92 229.62C366.449 229.62 365.217 228.599 364.893 227.227C360.84 226.544 357.267 224.855 354.724 223.158C354.054 226.485 353.588 230.541 353.737 234.973C353.749 235.319 354.043 235.625 354.448 235.625H381.496C381.899 235.625 382.192 235.323 382.206 234.977C382.348 231.57 382.248 226.915 381.503 222.888C378.048 225.681 374.409 227.023 370.896 227.416ZM369.731 226.509C369.731 227.509 368.92 228.32 367.92 228.32C366.92 228.32 366.109 227.509 366.109 226.509C366.109 225.509 366.92 224.698 367.92 224.698C368.92 224.698 369.731 225.509 369.731 226.509Z" fill="url(#paint53_linear_1081_3317)" fill-opacity="0.3"/>
<g filter="url(#filter14_dd_1081_3317)">
<rect x="88.3481" y="501.745" width="47.2476" height="47.2476" rx="5" fill="#ECF1F0"/>
<rect x="88.5481" y="501.945" width="46.8476" height="46.8476" rx="4.8" stroke="#F7F7F6" stroke-width="0.4"/>
</g>
<path fill-rule="evenodd" clip-rule="evenodd" d="M101.021 514.83V512.733C101.021 511.819 101.841 511.066 102.838 511.066H108.406C109.402 511.066 110.223 511.819 110.223 512.733V514.83H125.638C126.869 514.83 127.924 515.744 127.924 516.927V534.673C127.924 535.802 126.869 536.77 125.638 536.77H98.3831C97.1522 536.77 96.0972 535.856 96.0972 534.673V516.927C96.0972 515.798 97.0936 514.83 98.3831 514.83H101.021ZM103.482 514.83V513.324H107.761V514.83H103.482ZM121.292 520.914C121.072 520.713 120.949 520.439 120.949 520.154C120.949 519.869 121.072 519.595 121.292 519.393C121.512 519.192 121.81 519.078 122.121 519.078C122.432 519.078 122.73 519.192 122.95 519.393C123.17 519.595 123.293 519.869 123.293 520.154C123.293 520.439 123.17 520.713 122.95 520.914C122.73 521.116 122.432 521.229 122.121 521.229C121.81 521.229 121.512 521.116 121.292 520.914ZM107.878 530.102C108.992 531.017 110.457 531.554 111.981 531.554H112.216C115.557 531.393 118.136 528.866 118.018 525.8C117.96 524.348 117.256 522.95 116.084 521.982C114.912 521.014 113.329 520.477 111.747 520.53C108.406 520.692 105.827 523.219 105.944 526.284C106.003 527.736 106.706 529.081 107.878 530.102ZM108.464 526.177C108.406 524.348 109.93 522.843 111.864 522.789C112.802 522.789 113.681 523.112 114.384 523.649C115.088 524.241 115.439 525.048 115.498 525.908C115.557 527.736 114.033 529.242 112.098 529.296C111.161 529.35 110.281 529.027 109.578 528.435C108.875 527.844 108.523 527.037 108.464 526.177ZM125.404 534.458H98.5589V517.142H125.404V534.458Z" fill="url(#paint54_linear_1081_3317)"/>
<path fill-rule="evenodd" clip-rule="evenodd" d="M101.021 514.83V512.733C101.021 511.819 101.841 511.066 102.838 511.066H108.406C109.402 511.066 110.223 511.819 110.223 512.733V514.83H125.638C126.869 514.83 127.924 515.744 127.924 516.927V534.673C127.924 535.802 126.869 536.77 125.638 536.77H98.3831C97.1522 536.77 96.0972 535.856 96.0972 534.673V516.927C96.0972 515.798 97.0936 514.83 98.3831 514.83H101.021ZM103.482 514.83V513.324H107.761V514.83H103.482ZM121.292 520.914C121.072 520.713 120.949 520.439 120.949 520.154C120.949 519.869 121.072 519.595 121.292 519.393C121.512 519.192 121.81 519.078 122.121 519.078C122.432 519.078 122.73 519.192 122.95 519.393C123.17 519.595 123.293 519.869 123.293 520.154C123.293 520.439 123.17 520.713 122.95 520.914C122.73 521.116 122.432 521.229 122.121 521.229C121.81 521.229 121.512 521.116 121.292 520.914ZM107.878 530.102C108.992 531.017 110.457 531.554 111.981 531.554H112.216C115.557 531.393 118.136 528.866 118.018 525.8C117.96 524.348 117.256 522.95 116.084 521.982C114.912 521.014 113.329 520.477 111.747 520.53C108.406 520.692 105.827 523.219 105.944 526.284C106.003 527.736 106.706 529.081 107.878 530.102ZM108.464 526.177C108.406 524.348 109.93 522.843 111.864 522.789C112.802 522.789 113.681 523.112 114.384 523.649C115.088 524.241 115.439 525.048 115.498 525.908C115.557 527.736 114.033 529.242 112.098 529.296C111.161 529.35 110.281 529.027 109.578 528.435C108.875 527.844 108.523 527.037 108.464 526.177ZM125.404 534.458H98.5589V517.142H125.404V534.458Z" fill="url(#paint55_linear_1081_3317)" fill-opacity="0.3"/>
<g filter="url(#filter15_dd_1081_3317)">
<rect x="1507.21" y="242.081" width="48" height="48" rx="5" fill="#EDF1F0"/>
<rect x="1507.41" y="242.281" width="47.6" height="47.6" rx="4.8" stroke="#F7F7F6" stroke-width="0.4"/>
</g>
<g filter="url(#filter16_d_1081_3317)">
<path d="M1546.76 258.49H1543.48V256.084C1543.48 255.76 1543.41 255.44 1543.28 255.141C1543.15 254.842 1542.96 254.57 1542.71 254.341C1542.47 254.112 1542.18 253.931 1541.86 253.807C1541.55 253.683 1541.2 253.62 1540.86 253.62H1523.03C1522.68 253.62 1522.34 253.683 1522.03 253.807C1521.71 253.931 1521.42 254.113 1521.18 254.341C1520.93 254.57 1520.74 254.842 1520.61 255.141C1520.48 255.44 1520.41 255.76 1520.41 256.084V258.49H1517.13C1516.78 258.49 1516.44 258.553 1516.12 258.677C1515.8 258.801 1515.52 258.983 1515.27 259.212C1515.03 259.441 1514.84 259.712 1514.7 260.011C1514.57 260.31 1514.51 260.631 1514.51 260.955V274.251C1514.51 274.575 1514.57 274.895 1514.71 275.194C1514.84 275.493 1515.03 275.765 1515.27 275.993C1515.52 276.222 1515.81 276.404 1516.12 276.528C1516.44 276.651 1516.78 276.715 1517.13 276.715H1519.06C1519.05 276.759 1519.05 276.803 1519.06 276.846V277.381C1519.05 277.49 1519.07 277.599 1519.12 277.701C1519.16 277.803 1519.22 277.896 1519.3 277.975C1519.38 278.054 1519.48 278.116 1519.59 278.159C1519.7 278.201 1519.81 278.223 1519.93 278.223C1520.05 278.223 1520.16 278.201 1520.27 278.159C1520.38 278.116 1520.47 278.054 1520.55 277.975C1520.64 277.896 1520.7 277.803 1520.74 277.701C1520.78 277.599 1520.8 277.49 1520.8 277.381V276.847C1520.81 276.803 1520.81 276.759 1520.8 276.716H1543.07C1543.06 276.759 1543.06 276.803 1543.07 276.847V277.381C1543.07 277.598 1543.16 277.807 1543.33 277.961C1543.49 278.115 1543.71 278.202 1543.94 278.202C1544.17 278.202 1544.4 278.115 1544.56 277.961C1544.72 277.807 1544.82 277.598 1544.82 277.381V276.847C1544.82 276.803 1544.82 276.759 1544.82 276.716H1546.82C1547.17 276.716 1547.51 276.652 1547.83 276.528C1548.15 276.404 1548.43 276.223 1548.68 275.994C1548.92 275.765 1549.11 275.493 1549.25 275.194C1549.38 274.895 1549.44 274.575 1549.44 274.251V260.954C1549.44 260.626 1549.37 260.301 1549.24 259.998C1549.1 259.695 1548.91 259.421 1548.66 259.192C1548.41 258.962 1548.11 258.782 1547.79 258.661C1547.46 258.541 1547.11 258.483 1546.76 258.49ZM1541.73 256.084V266.761H1532.78V255.262H1540.86C1541.34 255.262 1541.73 255.63 1541.73 256.084ZM1522.16 256.084C1522.16 255.63 1522.55 255.262 1523.03 255.262H1531.04V266.761H1522.16V256.084ZM1547.64 274.251C1547.64 274.705 1547.25 275.072 1546.76 275.072H1517.13C1516.64 275.072 1516.25 274.705 1516.25 274.251V260.954C1516.25 260.5 1516.64 260.133 1517.13 260.133H1520.41V266.818H1520.29C1520.06 266.818 1519.84 266.905 1519.68 267.059C1519.51 267.213 1519.42 267.422 1519.42 267.64C1519.42 267.857 1519.51 268.066 1519.68 268.22C1519.84 268.374 1520.06 268.461 1520.29 268.461H1543.58C1543.81 268.461 1544.03 268.374 1544.2 268.22C1544.36 268.066 1544.45 267.857 1544.45 267.64C1544.45 267.422 1544.36 267.213 1544.2 267.059C1544.03 266.905 1543.81 266.818 1543.58 266.818H1543.48V260.133H1546.76C1547.25 260.133 1547.64 260.5 1547.64 260.954V274.251Z" fill="url(#paint56_linear_1081_3317)"/>
<path d="M1546.76 258.49H1543.48V256.084C1543.48 255.76 1543.41 255.44 1543.28 255.141C1543.15 254.842 1542.96 254.57 1542.71 254.341C1542.47 254.112 1542.18 253.931 1541.86 253.807C1541.55 253.683 1541.2 253.62 1540.86 253.62H1523.03C1522.68 253.62 1522.34 253.683 1522.03 253.807C1521.71 253.931 1521.42 254.113 1521.18 254.341C1520.93 254.57 1520.74 254.842 1520.61 255.141C1520.48 255.44 1520.41 255.76 1520.41 256.084V258.49H1517.13C1516.78 258.49 1516.44 258.553 1516.12 258.677C1515.8 258.801 1515.52 258.983 1515.27 259.212C1515.03 259.441 1514.84 259.712 1514.7 260.011C1514.57 260.31 1514.51 260.631 1514.51 260.955V274.251C1514.51 274.575 1514.57 274.895 1514.71 275.194C1514.84 275.493 1515.03 275.765 1515.27 275.993C1515.52 276.222 1515.81 276.404 1516.12 276.528C1516.44 276.651 1516.78 276.715 1517.13 276.715H1519.06C1519.05 276.759 1519.05 276.803 1519.06 276.846V277.381C1519.05 277.49 1519.07 277.599 1519.12 277.701C1519.16 277.803 1519.22 277.896 1519.3 277.975C1519.38 278.054 1519.48 278.116 1519.59 278.159C1519.7 278.201 1519.81 278.223 1519.93 278.223C1520.05 278.223 1520.16 278.201 1520.27 278.159C1520.38 278.116 1520.47 278.054 1520.55 277.975C1520.64 277.896 1520.7 277.803 1520.74 277.701C1520.78 277.599 1520.8 277.49 1520.8 277.381V276.847C1520.81 276.803 1520.81 276.759 1520.8 276.716H1543.07C1543.06 276.759 1543.06 276.803 1543.07 276.847V277.381C1543.07 277.598 1543.16 277.807 1543.33 277.961C1543.49 278.115 1543.71 278.202 1543.94 278.202C1544.17 278.202 1544.4 278.115 1544.56 277.961C1544.72 277.807 1544.82 277.598 1544.82 277.381V276.847C1544.82 276.803 1544.82 276.759 1544.82 276.716H1546.82C1547.17 276.716 1547.51 276.652 1547.83 276.528C1548.15 276.404 1548.43 276.223 1548.68 275.994C1548.92 275.765 1549.11 275.493 1549.25 275.194C1549.38 274.895 1549.44 274.575 1549.44 274.251V260.954C1549.44 260.626 1549.37 260.301 1549.24 259.998C1549.1 259.695 1548.91 259.421 1548.66 259.192C1548.41 258.962 1548.11 258.782 1547.79 258.661C1547.46 258.541 1547.11 258.483 1546.76 258.49ZM1541.73 256.084V266.761H1532.78V255.262H1540.86C1541.34 255.262 1541.73 255.63 1541.73 256.084ZM1522.16 256.084C1522.16 255.63 1522.55 255.262 1523.03 255.262H1531.04V266.761H1522.16V256.084ZM1547.64 274.251C1547.64 274.705 1547.25 275.072 1546.76 275.072H1517.13C1516.64 275.072 1516.25 274.705 1516.25 274.251V260.954C1516.25 260.5 1516.64 260.133 1517.13 260.133H1520.41V266.818H1520.29C1520.06 266.818 1519.84 266.905 1519.68 267.059C1519.51 267.213 1519.42 267.422 1519.42 267.64C1519.42 267.857 1519.51 268.066 1519.68 268.22C1519.84 268.374 1520.06 268.461 1520.29 268.461H1543.58C1543.81 268.461 1544.03 268.374 1544.2 268.22C1544.36 268.066 1544.45 267.857 1544.45 267.64C1544.45 267.422 1544.36 267.213 1544.2 267.059C1544.03 266.905 1543.81 266.818 1543.58 266.818H1543.48V260.133H1546.76C1547.25 260.133 1547.64 260.5 1547.64 260.954V274.251Z" fill="url(#paint57_linear_1081_3317)" fill-opacity="0.3"/>
</g>
</g>
<defs>
<filter id="filter0_f_1081_3317" x="1430.55" y="404.561" width="56.6985" height="54.6959" filterUnits="userSpaceOnUse" color-interpolation-filters="sRGB">
<feFlood flood-opacity="0" result="BackgroundImageFix"/>
<feBlend mode="normal" in="SourceGraphic" in2="BackgroundImageFix" result="shape"/>
<feGaussianBlur stdDeviation="9.8" result="effect1_foregroundBlur_1081_3317"/>
</filter>
<filter id="filter1_f_1081_3317" x="1426.65" y="403.058" width="64.4954" height="57.7024" filterUnits="userSpaceOnUse" color-interpolation-filters="sRGB">
<feFlood flood-opacity="0" result="BackgroundImageFix"/>
<feBlend mode="normal" in="SourceGraphic" in2="BackgroundImageFix" result="shape"/>
<feGaussianBlur stdDeviation="9.8" result="effect1_foregroundBlur_1081_3317"/>
</filter>
<filter id="filter2_f_1081_3317" x="1215.12" y="518.213" width="56.6985" height="54.6959" filterUnits="userSpaceOnUse" color-interpolation-filters="sRGB">
<feFlood flood-opacity="0" result="BackgroundImageFix"/>
<feBlend mode="normal" in="SourceGraphic" in2="BackgroundImageFix" result="shape"/>
<feGaussianBlur stdDeviation="9.8" result="effect1_foregroundBlur_1081_3317"/>
</filter>
<filter id="filter3_f_1081_3317" x="1211.22" y="516.71" width="64.4954" height="57.7024" filterUnits="userSpaceOnUse" color-interpolation-filters="sRGB">
<feFlood flood-opacity="0" result="BackgroundImageFix"/>
<feBlend mode="normal" in="SourceGraphic" in2="BackgroundImageFix" result="shape"/>
<feGaussianBlur stdDeviation="9.8" result="effect1_foregroundBlur_1081_3317"/>
</filter>
<filter id="filter4_f_1081_3317" x="1360.03" y="238.733" width="56.6985" height="54.6959" filterUnits="userSpaceOnUse" color-interpolation-filters="sRGB">
<feFlood flood-opacity="0" result="BackgroundImageFix"/>
<feBlend mode="normal" in="SourceGraphic" in2="BackgroundImageFix" result="shape"/>
<feGaussianBlur stdDeviation="9.8" result="effect1_foregroundBlur_1081_3317"/>
</filter>
<filter id="filter5_f_1081_3317" x="1356.13" y="237.23" width="64.4954" height="57.7024" filterUnits="userSpaceOnUse" color-interpolation-filters="sRGB">
<feFlood flood-opacity="0" result="BackgroundImageFix"/>
<feBlend mode="normal" in="SourceGraphic" in2="BackgroundImageFix" result="shape"/>
<feGaussianBlur stdDeviation="9.8" result="effect1_foregroundBlur_1081_3317"/>
</filter>
<filter id="filter6_dd_1081_3317" x="437.126" y="625.41" width="55.2476" height="55.2476" filterUnits="userSpaceOnUse" color-interpolation-filters="sRGB">
<feFlood flood-opacity="0" result="BackgroundImageFix"/>
<feColorMatrix in="SourceAlpha" type="matrix" values="0 0 0 0 0 0 0 0 0 0 0 0 0 0 0 0 0 0 127 0" result="hardAlpha"/>
<feOffset dx="-1" dy="-1"/>
<feGaussianBlur stdDeviation="1.5"/>
<feComposite in2="hardAlpha" operator="out"/>
<feColorMatrix type="matrix" values="0 0 0 0 1 0 0 0 0 1 0 0 0 0 1 0 0 0 0.75 0"/>
<feBlend mode="normal" in2="BackgroundImageFix" result="effect1_dropShadow_1081_3317"/>
<feColorMatrix in="SourceAlpha" type="matrix" values="0 0 0 0 0 0 0 0 0 0 0 0 0 0 0 0 0 0 127 0" result="hardAlpha"/>
<feOffset dx="1" dy="1"/>
<feGaussianBlur stdDeviation="1.5"/>
<feComposite in2="hardAlpha" operator="out"/>
<feColorMatrix type="matrix" values="0 0 0 0 0 0 0 0 0 0 0 0 0 0 0 0 0 0 0.1 0"/>
<feBlend mode="normal" in2="effect1_dropShadow_1081_3317" result="effect2_dropShadow_1081_3317"/>
<feBlend mode="normal" in="SourceGraphic" in2="effect2_dropShadow_1081_3317" result="shape"/>
</filter>
<filter id="filter7_dd_1081_3317" x="707.055" y="466.513" width="56" height="56" filterUnits="userSpaceOnUse" color-interpolation-filters="sRGB">
<feFlood flood-opacity="0" result="BackgroundImageFix"/>
<feColorMatrix in="SourceAlpha" type="matrix" values="0 0 0 0 0 0 0 0 0 0 0 0 0 0 0 0 0 0 127 0" result="hardAlpha"/>
<feOffset dx="-1" dy="-1"/>
<feGaussianBlur stdDeviation="1.5"/>
<feComposite in2="hardAlpha" operator="out"/>
<feColorMatrix type="matrix" values="0 0 0 0 1 0 0 0 0 1 0 0 0 0 1 0 0 0 0.4 0"/>
<feBlend mode="normal" in2="BackgroundImageFix" result="effect1_dropShadow_1081_3317"/>
<feColorMatrix in="SourceAlpha" type="matrix" values="0 0 0 0 0 0 0 0 0 0 0 0 0 0 0 0 0 0 127 0" result="hardAlpha"/>
<feOffset dx="1" dy="1"/>
<feGaussianBlur stdDeviation="1.5"/>
<feComposite in2="hardAlpha" operator="out"/>
<feColorMatrix type="matrix" values="0 0 0 0 0 0 0 0 0 0 0 0 0 0 0 0 0 0 0.1 0"/>
<feBlend mode="normal" in2="effect1_dropShadow_1081_3317" result="effect2_dropShadow_1081_3317"/>
<feBlend mode="normal" in="SourceGraphic" in2="effect2_dropShadow_1081_3317" result="shape"/>
</filter>
<filter id="filter8_dd_1081_3317" x="1371.03" y="403.845" width="56.127" height="56.127" filterUnits="userSpaceOnUse" color-interpolation-filters="sRGB">
<feFlood flood-opacity="0" result="BackgroundImageFix"/>
<feColorMatrix in="SourceAlpha" type="matrix" values="0 0 0 0 0 0 0 0 0 0 0 0 0 0 0 0 0 0 127 0" result="hardAlpha"/>
<feOffset dx="1" dy="1"/>
<feGaussianBlur stdDeviation="1.5"/>
<feComposite in2="hardAlpha" operator="out"/>
<feColorMatrix type="matrix" values="0 0 0 0 0 0 0 0 0 0 0 0 0 0 0 0 0 0 0.06 0"/>
<feBlend mode="normal" in2="BackgroundImageFix" result="effect1_dropShadow_1081_3317"/>
<feColorMatrix in="SourceAlpha" type="matrix" values="0 0 0 0 0 0 0 0 0 0 0 0 0 0 0 0 0 0 127 0" result="hardAlpha"/>
<feOffset dx="-1" dy="-1"/>
<feGaussianBlur stdDeviation="1.5"/>
<feComposite in2="hardAlpha" operator="out"/>
<feColorMatrix type="matrix" values="0 0 0 0 1 0 0 0 0 1 0 0 0 0 1 0 0 0 0.39 0"/>
<feBlend mode="normal" in2="effect1_dropShadow_1081_3317" result="effect2_dropShadow_1081_3317"/>
<feBlend mode="normal" in="SourceGraphic" in2="effect2_dropShadow_1081_3317" result="shape"/>
</filter>
<filter id="filter9_f_1081_3317" x="694.66" y="239.744" width="57.929" height="55.4253" filterUnits="userSpaceOnUse" color-interpolation-filters="sRGB">
<feFlood flood-opacity="0" result="BackgroundImageFix"/>
<feBlend mode="normal" in="SourceGraphic" in2="BackgroundImageFix" result="shape"/>
<feGaussianBlur stdDeviation="9.8" result="effect1_foregroundBlur_1081_3317"/>
</filter>
<filter id="filter10_f_1081_3317" x="690.487" y="238.17" width="66.2742" height="58.5735" filterUnits="userSpaceOnUse" color-interpolation-filters="sRGB">
<feFlood flood-opacity="0" result="BackgroundImageFix"/>
<feBlend mode="normal" in="SourceGraphic" in2="BackgroundImageFix" result="shape"/>
<feGaussianBlur stdDeviation="9.8" result="effect1_foregroundBlur_1081_3317"/>
</filter>
<filter id="filter11_f_1081_3317" x="715.164" y="260.739" width="16.4098" height="16.3851" filterUnits="userSpaceOnUse" color-interpolation-filters="sRGB">
<feFlood flood-opacity="0" result="BackgroundImageFix"/>
<feBlend mode="normal" in="SourceGraphic" in2="BackgroundImageFix" result="shape"/>
<feGaussianBlur stdDeviation="2.1" result="effect1_foregroundBlur_1081_3317"/>
</filter>
<filter id="filter12_dd_1081_3317" x="566.243" y="237.651" width="56" height="56" filterUnits="userSpaceOnUse" color-interpolation-filters="sRGB">
<feFlood flood-opacity="0" result="BackgroundImageFix"/>
<feColorMatrix in="SourceAlpha" type="matrix" values="0 0 0 0 0 0 0 0 0 0 0 0 0 0 0 0 0 0 127 0" result="hardAlpha"/>
<feOffset dx="-1" dy="-1"/>
<feGaussianBlur stdDeviation="1.5"/>
<feComposite in2="hardAlpha" operator="out"/>
<feColorMatrix type="matrix" values="0 0 0 0 1 0 0 0 0 1 0 0 0 0 1 0 0 0 0.75 0"/>
<feBlend mode="normal" in2="BackgroundImageFix" result="effect1_dropShadow_1081_3317"/>
<feColorMatrix in="SourceAlpha" type="matrix" values="0 0 0 0 0 0 0 0 0 0 0 0 0 0 0 0 0 0 127 0" result="hardAlpha"/>
<feOffset dx="1" dy="1"/>
<feGaussianBlur stdDeviation="1.5"/>
<feComposite in2="hardAlpha" operator="out"/>
<feColorMatrix type="matrix" values="0 0 0 0 0 0 0 0 0 0 0 0 0 0 0 0 0 0 0.1 0"/>
<feBlend mode="normal" in2="effect1_dropShadow_1081_3317" result="effect2_dropShadow_1081_3317"/>
<feBlend mode="normal" in="SourceGraphic" in2="effect2_dropShadow_1081_3317" result="shape"/>
</filter>
<filter id="filter13_dd_1081_3317" x="338.809" y="194.398" width="56" height="56" filterUnits="userSpaceOnUse" color-interpolation-filters="sRGB">
<feFlood flood-opacity="0" result="BackgroundImageFix"/>
<feColorMatrix in="SourceAlpha" type="matrix" values="0 0 0 0 0 0 0 0 0 0 0 0 0 0 0 0 0 0 127 0" result="hardAlpha"/>
<feOffset dx="-1" dy="-1"/>
<feGaussianBlur stdDeviation="1.5"/>
<feComposite in2="hardAlpha" operator="out"/>
<feColorMatrix type="matrix" values="0 0 0 0 1 0 0 0 0 1 0 0 0 0 1 0 0 0 0.75 0"/>
<feBlend mode="normal" in2="BackgroundImageFix" result="effect1_dropShadow_1081_3317"/>
<feColorMatrix in="SourceAlpha" type="matrix" values="0 0 0 0 0 0 0 0 0 0 0 0 0 0 0 0 0 0 127 0" result="hardAlpha"/>
<feOffset dx="1" dy="1"/>
<feGaussianBlur stdDeviation="1.5"/>
<feComposite in2="hardAlpha" operator="out"/>
<feColorMatrix type="matrix" values="0 0 0 0 0 0 0 0 0 0 0 0 0 0 0 0 0 0 0.1 0"/>
<feBlend mode="normal" in2="effect1_dropShadow_1081_3317" result="effect2_dropShadow_1081_3317"/>
<feBlend mode="normal" in="SourceGraphic" in2="effect2_dropShadow_1081_3317" result="shape"/>
</filter>
<filter id="filter14_dd_1081_3317" x="84.3481" y="497.745" width="55.2476" height="55.2476" filterUnits="userSpaceOnUse" color-interpolation-filters="sRGB">
<feFlood flood-opacity="0" result="BackgroundImageFix"/>
<feColorMatrix in="SourceAlpha" type="matrix" values="0 0 0 0 0 0 0 0 0 0 0 0 0 0 0 0 0 0 127 0" result="hardAlpha"/>
<feOffset dx="-1" dy="-1"/>
<feGaussianBlur stdDeviation="1.5"/>
<feComposite in2="hardAlpha" operator="out"/>
<feColorMatrix type="matrix" values="0 0 0 0 1 0 0 0 0 1 0 0 0 0 1 0 0 0 0.75 0"/>
<feBlend mode="normal" in2="BackgroundImageFix" result="effect1_dropShadow_1081_3317"/>
<feColorMatrix in="SourceAlpha" type="matrix" values="0 0 0 0 0 0 0 0 0 0 0 0 0 0 0 0 0 0 127 0" result="hardAlpha"/>
<feOffset dx="1" dy="1"/>
<feGaussianBlur stdDeviation="1.5"/>
<feComposite in2="hardAlpha" operator="out"/>
<feColorMatrix type="matrix" values="0 0 0 0 0 0 0 0 0 0 0 0 0 0 0 0 0 0 0.1 0"/>
<feBlend mode="normal" in2="effect1_dropShadow_1081_3317" result="effect2_dropShadow_1081_3317"/>
<feBlend mode="normal" in="SourceGraphic" in2="effect2_dropShadow_1081_3317" result="shape"/>
</filter>
<filter id="filter15_dd_1081_3317" x="1503.21" y="238.081" width="56" height="56" filterUnits="userSpaceOnUse" color-interpolation-filters="sRGB">
<feFlood flood-opacity="0" result="BackgroundImageFix"/>
<feColorMatrix in="SourceAlpha" type="matrix" values="0 0 0 0 0 0 0 0 0 0 0 0 0 0 0 0 0 0 127 0" result="hardAlpha"/>
<feOffset dx="-1" dy="-1"/>
<feGaussianBlur stdDeviation="1.5"/>
<feComposite in2="hardAlpha" operator="out"/>
<feColorMatrix type="matrix" values="0 0 0 0 1 0 0 0 0 1 0 0 0 0 1 0 0 0 0.75 0"/>
<feBlend mode="normal" in2="BackgroundImageFix" result="effect1_dropShadow_1081_3317"/>
<feColorMatrix in="SourceAlpha" type="matrix" values="0 0 0 0 0 0 0 0 0 0 0 0 0 0 0 0 0 0 127 0" result="hardAlpha"/>
<feOffset dx="1" dy="1"/>
<feGaussianBlur stdDeviation="1.5"/>
<feComposite in2="hardAlpha" operator="out"/>
<feColorMatrix type="matrix" values="0 0 0 0 0 0 0 0 0 0 0 0 0 0 0 0 0 0 0.1 0"/>
<feBlend mode="normal" in2="effect1_dropShadow_1081_3317" result="effect2_dropShadow_1081_3317"/>
<feBlend mode="normal" in="SourceGraphic" in2="effect2_dropShadow_1081_3317" result="shape"/>
</filter>
<filter id="filter16_d_1081_3317" x="1511.51" y="250.62" width="42.9385" height="32.6035" filterUnits="userSpaceOnUse" color-interpolation-filters="sRGB">
<feFlood flood-opacity="0" result="BackgroundImageFix"/>
<feColorMatrix in="SourceAlpha" type="matrix" values="0 0 0 0 0 0 0 0 0 0 0 0 0 0 0 0 0 0 127 0" result="hardAlpha"/>
<feOffset dx="1" dy="1"/>
<feGaussianBlur stdDeviation="2"/>
<feComposite in2="hardAlpha" operator="out"/>
<feColorMatrix type="matrix" values="0 0 0 0 0 0 0 0 0 0 0 0 0 0 0 0 0 0 0.1 0"/>
<feBlend mode="normal" in2="BackgroundImageFix" result="effect1_dropShadow_1081_3317"/>
<feBlend mode="normal" in="SourceGraphic" in2="effect1_dropShadow_1081_3317" result="shape"/>
</filter>
<radialGradient id="paint0_radial_1081_3317" cx="0" cy="0" r="1" gradientUnits="userSpaceOnUse" gradientTransform="translate(801.623 465.981) rotate(124.214) scale(726.506 1587.15)">
<stop stop-color="#A3B2B4" stop-opacity="0"/>
<stop offset="0.130909" stop-color="#A3B2B4" stop-opacity="0.2"/>
<stop offset="0.675" stop-color="#97DFD3" stop-opacity="0.4"/>
<stop offset="1" stop-color="#A3B2B4" stop-opacity="0.6"/>
</radialGradient>
<linearGradient id="paint1_linear_1081_3317" x1="645.393" y1="159.874" x2="810.465" y2="702.903" gradientUnits="userSpaceOnUse">
<stop stop-color="#FDFDFD" stop-opacity="0.8"/>
<stop offset="1" stop-color="#DDE4E5" stop-opacity="0"/>
</linearGradient>
<linearGradient id="paint2_linear_1081_3317" x1="777.194" y1="623.777" x2="777.194" y2="674.652" gradientUnits="userSpaceOnUse">
<stop stop-color="#EAF0EF" stop-opacity="0"/>
<stop offset="1" stop-color="#EFF2F1"/>
</linearGradient>
<linearGradient id="paint3_linear_1081_3317" x1="1152.27" y1="195.408" x2="1153.26" y2="111.549" gradientUnits="userSpaceOnUse">
<stop stop-color="#F4F1EA" stop-opacity="0"/>
<stop offset="1" stop-color="#F4F1EA"/>
</linearGradient>
<linearGradient id="paint4_linear_1081_3317" x1="1458.66" y1="427.308" x2="1458.66" y2="434.85" gradientUnits="userSpaceOnUse">
<stop stop-color="#FFD2A1"/>
<stop offset="1" stop-color="#CFA06E"/>
</linearGradient>
<linearGradient id="paint5_linear_1081_3317" x1="1243.24" y1="540.96" x2="1243.24" y2="548.503" gradientUnits="userSpaceOnUse">
<stop stop-color="#FFD2A1"/>
<stop offset="1" stop-color="#CFA06E"/>
</linearGradient>
<linearGradient id="paint6_linear_1081_3317" x1="1388.15" y1="261.48" x2="1388.15" y2="269.023" gradientUnits="userSpaceOnUse">
<stop stop-color="#FFD2A1"/>
<stop offset="1" stop-color="#CFA06E"/>
</linearGradient>
<linearGradient id="paint7_linear_1081_3317" x1="449.569" y1="642.071" x2="454.53" y2="656.619" gradientUnits="userSpaceOnUse">
<stop stop-color="#668B94"/>
<stop offset="0.901588" stop-color="#7ABFD1"/>
</linearGradient>
<linearGradient id="paint8_linear_1081_3317" x1="452.551" y1="638.669" x2="462.302" y2="654.836" gradientUnits="userSpaceOnUse">
<stop stop-color="white"/>
<stop offset="1" stop-color="white"/>
</linearGradient>
<linearGradient id="paint9_linear_1081_3317" x1="454.368" y1="643.972" x2="456.079" y2="648.728" gradientUnits="userSpaceOnUse">
<stop stop-color="#668B94"/>
<stop offset="0.901588" stop-color="#7ABFD1"/>
</linearGradient>
<linearGradient id="paint10_linear_1081_3317" x1="455.303" y1="642.847" x2="458.606" y2="648.037" gradientUnits="userSpaceOnUse">
<stop stop-color="white"/>
<stop offset="1" stop-color="white"/>
</linearGradient>
<linearGradient id="paint11_linear_1081_3317" x1="449.673" y1="657.687" x2="454.61" y2="671.965" gradientUnits="userSpaceOnUse">
<stop stop-color="#668B94"/>
<stop offset="0.901588" stop-color="#7ABFD1"/>
</linearGradient>
<linearGradient id="paint12_linear_1081_3317" x1="452.567" y1="654.34" x2="462.227" y2="670.132" gradientUnits="userSpaceOnUse">
<stop stop-color="white"/>
<stop offset="1" stop-color="white"/>
</linearGradient>
<linearGradient id="paint13_linear_1081_3317" x1="454.368" y1="659.511" x2="456.039" y2="664.153" gradientUnits="userSpaceOnUse">
<stop stop-color="#668B94"/>
<stop offset="0.901588" stop-color="#7ABFD1"/>
</linearGradient>
<linearGradient id="paint14_linear_1081_3317" x1="455.281" y1="658.413" x2="458.505" y2="663.48" gradientUnits="userSpaceOnUse">
<stop stop-color="white"/>
<stop offset="1" stop-color="white"/>
</linearGradient>
<linearGradient id="paint15_linear_1081_3317" x1="465.847" y1="642.071" x2="470.809" y2="656.619" gradientUnits="userSpaceOnUse">
<stop stop-color="#668B94"/>
<stop offset="0.901588" stop-color="#7ABFD1"/>
</linearGradient>
<linearGradient id="paint16_linear_1081_3317" x1="468.829" y1="638.669" x2="478.58" y2="654.836" gradientUnits="userSpaceOnUse">
<stop stop-color="white"/>
<stop offset="1" stop-color="white"/>
</linearGradient>
<linearGradient id="paint17_linear_1081_3317" x1="470.959" y1="643.972" x2="472.67" y2="648.728" gradientUnits="userSpaceOnUse">
<stop stop-color="#668B94"/>
<stop offset="0.901588" stop-color="#7ABFD1"/>
</linearGradient>
<linearGradient id="paint18_linear_1081_3317" x1="471.894" y1="642.847" x2="475.197" y2="648.037" gradientUnits="userSpaceOnUse">
<stop stop-color="white"/>
<stop offset="1" stop-color="white"/>
</linearGradient>
<linearGradient id="paint19_linear_1081_3317" x1="466.055" y1="655.553" x2="468.377" y2="662.007" gradientUnits="userSpaceOnUse">
<stop stop-color="#668B94"/>
<stop offset="0.901588" stop-color="#7ABFD1"/>
</linearGradient>
<linearGradient id="paint20_linear_1081_3317" x1="467.323" y1="654.027" x2="471.805" y2="661.07" gradientUnits="userSpaceOnUse">
<stop stop-color="white"/>
<stop offset="1" stop-color="white"/>
</linearGradient>
<linearGradient id="paint21_linear_1081_3317" x1="477.01" y1="654.883" x2="478.151" y2="658.053" gradientUnits="userSpaceOnUse">
<stop stop-color="#668B94"/>
<stop offset="0.901588" stop-color="#7ABFD1"/>
</linearGradient>
<linearGradient id="paint22_linear_1081_3317" x1="477.633" y1="654.133" x2="479.835" y2="657.593" gradientUnits="userSpaceOnUse">
<stop stop-color="white"/>
<stop offset="1" stop-color="white"/>
</linearGradient>
<linearGradient id="paint23_linear_1081_3317" x1="466.369" y1="665.144" x2="467.55" y2="668.428" gradientUnits="userSpaceOnUse">
<stop stop-color="#668B94"/>
<stop offset="0.901588" stop-color="#7ABFD1"/>
</linearGradient>
<linearGradient id="paint24_linear_1081_3317" x1="467.014" y1="664.368" x2="469.295" y2="667.951" gradientUnits="userSpaceOnUse">
<stop stop-color="white"/>
<stop offset="1" stop-color="white"/>
</linearGradient>
<linearGradient id="paint25_linear_1081_3317" x1="472.105" y1="661.545" x2="475.12" y2="669.923" gradientUnits="userSpaceOnUse">
<stop stop-color="#668B94"/>
<stop offset="0.901588" stop-color="#7ABFD1"/>
</linearGradient>
<linearGradient id="paint26_linear_1081_3317" x1="473.752" y1="659.563" x2="479.571" y2="668.707" gradientUnits="userSpaceOnUse">
<stop stop-color="white"/>
<stop offset="1" stop-color="white"/>
</linearGradient>
<linearGradient id="paint27_linear_1081_3317" x1="717.578" y1="488.908" x2="724.357" y2="516.497" gradientUnits="userSpaceOnUse">
<stop stop-color="#668B94"/>
<stop offset="0.901588" stop-color="#7ABFD1"/>
</linearGradient>
<linearGradient id="paint28_linear_1081_3317" x1="725.034" y1="482.781" x2="739.551" y2="516.188" gradientUnits="userSpaceOnUse">
<stop stop-color="white"/>
<stop offset="1" stop-color="white"/>
</linearGradient>
<linearGradient id="paint29_linear_1081_3317" x1="1390.84" y1="421.157" x2="1396.98" y2="438.256" gradientUnits="userSpaceOnUse">
<stop stop-color="#668B94"/>
<stop offset="0.901588" stop-color="#7ABFD1"/>
</linearGradient>
<linearGradient id="paint30_linear_1081_3317" x1="1394.2" y1="417.114" x2="1406.07" y2="435.783" gradientUnits="userSpaceOnUse">
<stop stop-color="white"/>
<stop offset="1" stop-color="white"/>
</linearGradient>
<linearGradient id="paint31_linear_1081_3317" x1="1384.57" y1="435.159" x2="1388.77" y2="454.612" gradientUnits="userSpaceOnUse">
<stop stop-color="#668B94"/>
<stop offset="0.901588" stop-color="#7ABFD1"/>
</linearGradient>
<linearGradient id="paint32_linear_1081_3317" x1="1390.47" y1="430.895" x2="1399.69" y2="455.015" gradientUnits="userSpaceOnUse">
<stop stop-color="white"/>
<stop offset="1" stop-color="white"/>
</linearGradient>
<linearGradient id="paint33_linear_1081_3317" x1="1394.71" y1="434.945" x2="1397.84" y2="443.646" gradientUnits="userSpaceOnUse">
<stop stop-color="#668B94"/>
<stop offset="0.901588" stop-color="#7ABFD1"/>
</linearGradient>
<linearGradient id="paint34_linear_1081_3317" x1="1396.42" y1="432.887" x2="1402.46" y2="442.386" gradientUnits="userSpaceOnUse">
<stop stop-color="white"/>
<stop offset="1" stop-color="white"/>
</linearGradient>
<linearGradient id="paint35_linear_1081_3317" x1="723.369" y1="263.64" x2="723.369" y2="271.537" gradientUnits="userSpaceOnUse">
<stop stop-color="#FFD2A1"/>
<stop offset="1" stop-color="#CFA06E"/>
</linearGradient>
<linearGradient id="paint36_linear_1081_3317" x1="576.237" y1="258.748" x2="587.872" y2="294.688" gradientUnits="userSpaceOnUse">
<stop stop-color="#668B94"/>
<stop offset="0.901588" stop-color="#7ABFD1"/>
</linearGradient>
<linearGradient id="paint37_linear_1081_3317" x1="583.919" y1="250.432" x2="607.161" y2="291.03" gradientUnits="userSpaceOnUse">
<stop stop-color="white"/>
<stop offset="1" stop-color="white"/>
</linearGradient>
<linearGradient id="paint38_linear_1081_3317" x1="586.837" y1="253.165" x2="587.571" y2="259.56" gradientUnits="userSpaceOnUse">
<stop stop-color="#668B94"/>
<stop offset="0.901588" stop-color="#7ABFD1"/>
</linearGradient>
<linearGradient id="paint39_linear_1081_3317" x1="590.376" y1="251.808" x2="592.089" y2="260.256" gradientUnits="userSpaceOnUse">
<stop stop-color="white"/>
<stop offset="1" stop-color="white"/>
</linearGradient>
<linearGradient id="paint40_linear_1081_3317" x1="587.696" y1="264.433" x2="591.835" y2="266.275" gradientUnits="userSpaceOnUse">
<stop stop-color="#668B94"/>
<stop offset="0.901588" stop-color="#7ABFD1"/>
</linearGradient>
<linearGradient id="paint41_linear_1081_3317" x1="588.007" y1="262.1" x2="591.587" y2="263.001" gradientUnits="userSpaceOnUse">
<stop stop-color="white"/>
<stop offset="1" stop-color="white"/>
</linearGradient>
<linearGradient id="paint42_linear_1081_3317" x1="590.087" y1="264.433" x2="594.226" y2="266.275" gradientUnits="userSpaceOnUse">
<stop stop-color="#668B94"/>
<stop offset="0.901588" stop-color="#7ABFD1"/>
</linearGradient>
<linearGradient id="paint43_linear_1081_3317" x1="590.397" y1="262.1" x2="593.977" y2="263.001" gradientUnits="userSpaceOnUse">
<stop stop-color="white"/>
<stop offset="1" stop-color="white"/>
</linearGradient>
<linearGradient id="paint44_linear_1081_3317" x1="592.476" y1="264.433" x2="596.615" y2="266.275" gradientUnits="userSpaceOnUse">
<stop stop-color="#668B94"/>
<stop offset="0.901588" stop-color="#7ABFD1"/>
</linearGradient>
<linearGradient id="paint45_linear_1081_3317" x1="592.787" y1="262.1" x2="596.366" y2="263.001" gradientUnits="userSpaceOnUse">
<stop stop-color="white"/>
<stop offset="1" stop-color="white"/>
</linearGradient>
<linearGradient id="paint46_linear_1081_3317" x1="594.972" y1="264.433" x2="599.111" y2="266.275" gradientUnits="userSpaceOnUse">
<stop stop-color="#668B94"/>
<stop offset="0.901588" stop-color="#7ABFD1"/>
</linearGradient>
<linearGradient id="paint47_linear_1081_3317" x1="595.282" y1="262.1" x2="598.862" y2="263.001" gradientUnits="userSpaceOnUse">
<stop stop-color="white"/>
<stop offset="1" stop-color="white"/>
</linearGradient>
<linearGradient id="paint48_linear_1081_3317" x1="597.359" y1="264.433" x2="601.498" y2="266.275" gradientUnits="userSpaceOnUse">
<stop stop-color="#668B94"/>
<stop offset="0.901588" stop-color="#7ABFD1"/>
</linearGradient>
<linearGradient id="paint49_linear_1081_3317" x1="597.67" y1="262.1" x2="601.25" y2="263.001" gradientUnits="userSpaceOnUse">
<stop stop-color="white"/>
<stop offset="1" stop-color="white"/>
</linearGradient>
<linearGradient id="paint50_linear_1081_3317" x1="599.747" y1="264.433" x2="603.886" y2="266.275" gradientUnits="userSpaceOnUse">
<stop stop-color="#668B94"/>
<stop offset="0.901588" stop-color="#7ABFD1"/>
</linearGradient>
<linearGradient id="paint51_linear_1081_3317" x1="600.058" y1="262.1" x2="603.637" y2="263.001" gradientUnits="userSpaceOnUse">
<stop stop-color="white"/>
<stop offset="1" stop-color="white"/>
</linearGradient>
<linearGradient id="paint52_linear_1081_3317" x1="351.209" y1="213.342" x2="364.127" y2="249.526" gradientUnits="userSpaceOnUse">
<stop stop-color="#668B94"/>
<stop offset="0.901588" stop-color="#7ABFD1"/>
</linearGradient>
<linearGradient id="paint53_linear_1081_3317" x1="358.366" y1="204.798" x2="383.366" y2="244.397" gradientUnits="userSpaceOnUse">
<stop stop-color="white"/>
<stop offset="1" stop-color="white"/>
</linearGradient>
<linearGradient id="paint54_linear_1081_3317" x1="96.0972" y1="517.656" x2="104.52" y2="546.675" gradientUnits="userSpaceOnUse">
<stop stop-color="#668B94"/>
<stop offset="0.901588" stop-color="#7ABFD1"/>
</linearGradient>
<linearGradient id="paint55_linear_1081_3317" x1="102.886" y1="511.066" x2="120.24" y2="544.873" gradientUnits="userSpaceOnUse">
<stop stop-color="white"/>
<stop offset="1" stop-color="white"/>
</linearGradient>
<linearGradient id="paint56_linear_1081_3317" x1="1514.51" y1="259.927" x2="1521.67" y2="288.231" gradientUnits="userSpaceOnUse">
<stop stop-color="#668B94"/>
<stop offset="0.901588" stop-color="#7ABFD1"/>
</linearGradient>
<linearGradient id="paint57_linear_1081_3317" x1="1521.96" y1="253.62" x2="1537.2" y2="287.682" gradientUnits="userSpaceOnUse">
<stop stop-color="white"/>
<stop offset="1" stop-color="white"/>
</linearGradient>
<clipPath id="clip0_1081_3317">
<rect width="1566" height="782" fill="white"/>
</clipPath>
<clipPath id="clip1_1081_3317">
<rect width="33.2076" height="33.2076" fill="white" transform="translate(1381.48 414.305)"/>
</clipPath>
</defs>
</svg>
