<svg width="30" height="29" viewBox="0 0 30 29" fill="none" xmlns="http://www.w3.org/2000/svg">
<path d="M24.2062 3.63818H5.19197C4.1866 3.63818 3.37097 4.42568 3.37097 5.39639V23.755C3.37097 24.7257 4.1866 25.5132 5.19197 25.5132H24.2062C25.2116 25.5132 26.0272 24.7257 26.0272 23.755V5.39639C26.0272 4.42568 25.2116 3.63818 24.2062 3.63818ZM24.2062 23.7632C11.5244 23.7604 5.18347 23.7577 5.18347 23.755C5.1863 11.5104 5.18914 5.38818 5.19197 5.38818C17.8738 5.39092 24.2147 5.39365 24.2147 5.39639C24.2119 17.6409 24.2091 23.7632 24.2062 23.7632ZM6.72976 11.8386H10.0914V22.2784H6.72976V11.8386ZM8.41199 10.4112C9.48533 10.4112 10.3604 9.56904 10.3604 8.52998C10.3604 7.49365 9.48816 6.64873 8.41199 6.64873C7.33582 6.64873 6.46355 7.49092 6.46355 8.52998C6.46072 9.56904 7.33298 10.4112 8.41199 10.4112ZM15.5572 17.1132C15.5572 15.7515 15.8262 14.4335 17.5736 14.4335C19.2955 14.4335 19.321 15.9894 19.321 17.2007V22.2784H22.6798V16.5526C22.6798 13.7417 22.051 11.5788 18.6498 11.5788C17.0157 11.5788 15.9197 12.4456 15.4694 13.2659H15.4241V11.8386H12.1984V22.2784H15.5572V17.1132Z" fill="#EBE6D5"/>
</svg>
