<svg width="122" height="30" viewBox="0 0 122 30" fill="none" xmlns="http://www.w3.org/2000/svg">
<path d="M24.0517 15.8121H18.187C18.0135 15.8121 17.8729 15.9524 17.8729 16.1256V21.9803C17.8729 22.1535 18.0135 22.294 18.187 22.294H24.0517C24.2252 22.294 24.3658 22.1535 24.3658 21.9803V16.1256C24.3658 15.9524 24.2252 15.8121 24.0517 15.8121Z" fill="#EBE6D5"/>
<path d="M17.5589 22.8165H11.6943C11.5208 22.8165 11.3802 22.9569 11.3802 23.1301V28.9848C11.3802 29.158 11.5208 29.2984 11.6943 29.2984H17.5589C17.7324 29.2984 17.8731 29.158 17.8731 28.9848V23.1301C17.8731 22.9569 17.7324 22.8165 17.5589 22.8165Z" fill="#EBE6D5"/>
<path d="M1.01257 2.07574H28.2404C28.414 2.07574 28.5546 2.18977 28.5546 2.33069V7.08968C28.5546 7.2306 28.4138 7.34463 28.2404 7.34463H1.01257C0.839004 7.34463 0.698486 7.2306 0.698486 7.08968V2.33069C0.698486 2.18977 0.839187 2.07574 1.01257 2.07574Z" fill="#EBE6D5"/>
<path d="M17.5589 8.8075H11.6943C11.5208 8.8075 11.3802 8.94787 11.3802 9.12105V14.9757C11.3802 15.1489 11.5208 15.2893 11.6943 15.2893H17.5589C17.7324 15.2893 17.8731 15.1489 17.8731 14.9757V9.12105C17.8731 8.94787 17.7324 8.8075 17.5589 8.8075Z" fill="#EBE6D5"/>
<path d="M39.0545 14.1339C39.0545 14.2313 38.9754 14.3102 38.8779 14.3102H37.301C33.8721 14.3102 31.7289 16.1386 31.7289 19.8728V29.0326C31.7289 29.13 31.6499 29.2089 31.5523 29.2089H27.1514C27.0538 29.2089 26.9749 29.13 26.9749 29.0326V10.2075C26.9749 10.1101 27.0538 10.0313 27.1514 10.0313H31.2958C31.3866 10.0313 31.4628 10.1002 31.4714 10.1905L31.7287 12.832C32.547 10.9259 34.3784 9.64215 36.9501 9.64215C37.5735 9.64215 38.1968 9.71115 38.9175 9.88123C38.9971 9.89992 39.0543 9.97202 39.0543 10.0537V14.1339H39.0545Z" fill="#EBE6D5"/>
<path d="M39.8334 23.7253C39.8334 20.1853 42.4052 17.968 46.9643 17.6179L52.7309 17.1899V16.762C52.7309 14.1559 51.1723 13.1054 48.7564 13.1054C46.0315 13.1054 44.4827 14.2065 44.3963 16.1232C44.392 16.2186 44.3163 16.2951 44.2208 16.2951H40.5197C40.421 16.2951 40.3399 16.2139 40.3422 16.1154C40.4395 12.0545 43.8446 9.40973 48.9902 9.40973C54.1726 9.40973 57.3683 12.2106 57.3683 17.5398V29.0333C57.3683 29.1308 57.2888 29.2096 57.1911 29.2096H53.3545C53.2659 29.2096 53.1902 29.1434 53.1792 29.055L52.8478 26.3699C52.0297 28.3536 49.4193 29.7152 46.4185 29.7152C42.327 29.7152 39.8333 27.3423 39.8333 23.7247L39.8334 23.7253ZM52.7702 21.4302V20.4189L48.7564 20.73C45.7952 21.0022 44.6652 21.9747 44.6652 23.5308C44.6652 25.2814 45.8341 26.1372 47.9776 26.1372C50.9003 26.1372 52.7702 24.3867 52.7702 21.4302Z" fill="#EBE6D5"/>
<path d="M69.72 9.41009C74.9043 9.41009 78.4615 12.244 79.0477 16.7575C79.0614 16.8628 78.9774 16.9566 78.8715 16.9566H74.4523C74.3729 16.9566 74.3044 16.9023 74.2834 16.8257C73.7073 14.7332 72.1286 13.6503 69.9145 13.6503C66.875 13.6503 64.8489 15.9451 64.8489 19.5628C64.8489 23.1806 66.7189 25.4368 69.7584 25.4368C72.0857 25.4368 73.7402 24.3187 74.2843 22.3011C74.3044 22.2239 74.3738 22.169 74.4532 22.169H78.9062C79.0139 22.169 79.0979 22.2655 79.0815 22.3719C78.4122 26.7351 74.7089 29.7156 69.7584 29.7156C63.914 29.7156 60.0947 25.67 60.0947 19.5627C60.0947 13.6109 64.0308 9.40973 69.72 9.40973V9.41009Z" fill="#EBE6D5"/>
<path d="M80.7065 19.6014C80.7065 13.572 84.6427 9.40973 90.2926 9.40973C96.0594 9.40973 99.7225 13.2608 99.7225 19.2513V20.5148C99.7225 20.612 99.6431 20.6906 99.5463 20.691L85.227 20.7295C85.5776 24.1138 87.3699 25.8253 90.5263 25.8253C93.0783 25.8253 94.7738 24.8589 95.3581 23.108C95.3828 23.0357 95.4485 22.9857 95.5252 22.9857H99.5819C99.6942 22.9857 99.78 23.0899 99.7563 23.1992C98.8615 27.2723 95.3892 29.7153 90.4478 29.7153C84.7203 29.7153 80.7065 25.5531 80.7065 19.6014ZM85.3439 17.6954H94.8268C94.9263 17.6954 95.0075 17.6135 95.0048 17.5148C94.9226 14.9708 93.1111 13.2996 90.3318 13.2996C87.5261 13.2996 85.8114 14.8167 85.3439 17.6954Z" fill="#EBE6D5"/>
<path d="M101.593 19.678C101.593 13.6875 105.1 9.4086 110.906 9.4086C113.594 9.4086 115.971 10.5366 117.179 12.4428V0.443434C117.179 0.345996 117.258 0.267151 117.355 0.267151H121.717C121.815 0.267151 121.894 0.345996 121.894 0.443434V29.0324C121.894 29.1298 121.815 29.2087 121.717 29.2087H117.689C117.598 29.2087 117.522 29.1405 117.513 29.0505L117.217 26.2134C116.049 28.4305 113.555 29.7142 110.633 29.7142C105.06 29.7142 101.593 25.6297 101.593 19.678ZM117.14 19.5225C117.14 16.0605 114.997 13.6488 111.684 13.6488C108.372 13.6488 106.346 16.0992 106.346 19.5225C106.346 22.9458 108.373 25.3575 111.684 25.3575C114.996 25.3575 117.14 22.9846 117.14 19.5225Z" fill="#EBE6D5"/>
</svg>
